<?xml version="1.0" encoding="UTF-8" standalone="no"?>
<!DOCTYPE svg PUBLIC "-//W3C//DTD SVG 1.1//EN"
 "http://www.w3.org/Graphics/SVG/1.1/DTD/svg11.dtd">
<!-- Generated by graphviz version 13.1.0 (20250701.1702)
 -->
<!-- Title: snakemake_dag Pages: 1 -->
<svg width="1482pt" height="908pt"
 viewBox="0.00 0.00 1482.00 908.00" xmlns="http://www.w3.org/2000/svg" xmlns:xlink="http://www.w3.org/1999/xlink">
<g id="graph0" class="graph" transform="scale(1 1) rotate(0) translate(4 904)">
<title>snakemake_dag</title>
<polygon fill="white" stroke="none" points="-4,4 -4,-904 1478,-904 1478,4 -4,4"/>
<!-- 0 -->
<g id="node1" class="node">
<title>0</title>
<path fill="none" stroke="#70d856" stroke-width="2" d="M570,-36C570,-36 540,-36 540,-36 534,-36 528,-30 528,-24 528,-24 528,-12 528,-12 528,-6 534,0 540,0 540,0 570,0 570,0 576,0 582,-6 582,-12 582,-12 582,-24 582,-24 582,-30 576,-36 570,-36"/>
<text xml:space="preserve" text-anchor="middle" x="555" y="-14.88" font-family="sans" font-size="10.00">all</text>
</g>
<!-- 1 -->
<g id="node2" class="node">
<title>1</title>
<path fill="none" stroke="#56d892" stroke-width="2" d="M83.5,-684C83.5,-684 40.5,-684 40.5,-684 34.5,-684 28.5,-678 28.5,-672 28.5,-672 28.5,-660 28.5,-660 28.5,-654 34.5,-648 40.5,-648 40.5,-648 83.5,-648 83.5,-648 89.5,-648 95.5,-654 95.5,-660 95.5,-660 95.5,-672 95.5,-672 95.5,-678 89.5,-684 83.5,-684"/>
<text xml:space="preserve" text-anchor="middle" x="62" y="-662.88" font-family="sans" font-size="10.00">fastqc_pre</text>
</g>
<!-- 1&#45;&gt;0 -->
<g id="edge14" class="edge">
<title>1&#45;&gt;0</title>
<path fill="none" stroke="grey" stroke-width="2" d="M68.63,-647.36C78,-620.79 94,-568.74 94,-523 94,-523 94,-523 94,-161 94,-104.43 134.27,-97.03 185,-72 242.33,-43.72 430.59,-27.58 514.27,-21.64"/>
<polygon fill="grey" stroke="grey" stroke-width="2" points="514.48,-25.13 524.22,-20.95 514,-18.15 514.48,-25.13"/>
</g>
<!-- 8 -->
<g id="node9" class="node">
<title>8</title>
<path fill="none" stroke="#ced856" stroke-width="2" d="M237,-612C237,-612 207,-612 207,-612 201,-612 195,-606 195,-600 195,-600 195,-588 195,-588 195,-582 201,-576 207,-576 207,-576 237,-576 237,-576 243,-576 249,-582 249,-588 249,-588 249,-600 249,-600 249,-606 243,-612 237,-612"/>
<text xml:space="preserve" text-anchor="middle" x="222" y="-590.88" font-family="sans" font-size="10.00">multiqc</text>
</g>
<!-- 1&#45;&gt;8 -->
<g id="edge30" class="edge">
<title>1&#45;&gt;8</title>
<path fill="none" stroke="grey" stroke-width="2" d="M96.32,-649.98C121.53,-638.95 155.84,-623.95 182.24,-612.4"/>
<polygon fill="grey" stroke="grey" stroke-width="2" points="183.59,-615.63 191.35,-608.41 180.78,-609.21 183.59,-615.63"/>
</g>
<!-- 2 -->
<g id="node3" class="node">
<title>2</title>
<path fill="none" stroke="#56d0d8" stroke-width="2" d="M166,-684C166,-684 126,-684 126,-684 120,-684 114,-678 114,-672 114,-672 114,-660 114,-660 114,-654 120,-648 126,-648 126,-648 166,-648 166,-648 172,-648 178,-654 178,-660 178,-660 178,-672 178,-672 178,-678 172,-684 166,-684"/>
<text xml:space="preserve" text-anchor="middle" x="146" y="-662.88" font-family="sans" font-size="10.00">fastqc_aft</text>
</g>
<!-- 2&#45;&gt;0 -->
<g id="edge17" class="edge">
<title>2&#45;&gt;0</title>
<path fill="none" stroke="grey" stroke-width="2" d="M149.94,-647.17C155.5,-620.36 165,-568.02 165,-523 165,-523 165,-523 165,-161 165,-105.06 204.38,-97.82 254,-72 339.11,-27.71 454.16,-19.54 514.39,-18.57"/>
<polygon fill="grey" stroke="grey" stroke-width="2" points="514.09,-22.07 524.06,-18.48 514.03,-15.07 514.09,-22.07"/>
</g>
<!-- 2&#45;&gt;8 -->
<g id="edge32" class="edge">
<title>2&#45;&gt;8</title>
<path fill="none" stroke="grey" stroke-width="2" d="M165.18,-647.34C173.66,-639.52 183.82,-630.16 193.19,-621.53"/>
<polygon fill="grey" stroke="grey" stroke-width="2" points="195.35,-624.3 200.34,-614.95 190.61,-619.15 195.35,-624.3"/>
</g>
<!-- 3 -->
<g id="node4" class="node">
<title>3</title>
<path fill="none" stroke="#56d873" stroke-width="2" d="M223.5,-900C223.5,-900 150.5,-900 150.5,-900 144.5,-900 138.5,-894 138.5,-888 138.5,-888 138.5,-876 138.5,-876 138.5,-870 144.5,-864 150.5,-864 150.5,-864 223.5,-864 223.5,-864 229.5,-864 235.5,-870 235.5,-876 235.5,-876 235.5,-888 235.5,-888 235.5,-894 229.5,-900 223.5,-900"/>
<text xml:space="preserve" text-anchor="middle" x="187" y="-878.88" font-family="sans" font-size="10.00">trimmomatic_pe</text>
</g>
<!-- 3&#45;&gt;0 -->
<g id="edge12" class="edge">
<title>3&#45;&gt;0</title>
<path fill="none" stroke="grey" stroke-width="2" d="M137.87,-867.15C82.46,-848.18 0,-808.3 0,-739 0,-739 0,-739 0,-161 0,-97.07 53.95,-96.5 113,-72 185.2,-42.05 419.24,-26.34 514.3,-21.07"/>
<polygon fill="grey" stroke="grey" stroke-width="2" points="514.2,-24.58 524,-20.54 513.83,-17.59 514.2,-24.58"/>
</g>
<!-- 3&#45;&gt;2 -->
<g id="edge23" class="edge">
<title>3&#45;&gt;2</title>
<path fill="none" stroke="grey" stroke-width="2" d="M183.57,-863.12C176.58,-826.62 160.59,-743.13 151.89,-697.74"/>
<polygon fill="grey" stroke="grey" stroke-width="2" points="155.33,-697.11 150.01,-687.95 148.46,-698.43 155.33,-697.11"/>
</g>
<!-- 6 -->
<g id="node7" class="node">
<title>6</title>
<path fill="none" stroke="#56c1d8" stroke-width="2" d="M429.62,-828C429.62,-828 378.38,-828 378.38,-828 372.38,-828 366.38,-822 366.38,-816 366.38,-816 366.38,-804 366.38,-804 366.38,-798 372.38,-792 378.38,-792 378.38,-792 429.62,-792 429.62,-792 435.62,-792 441.62,-798 441.62,-804 441.62,-804 441.62,-816 441.62,-816 441.62,-822 435.62,-828 429.62,-828"/>
<text xml:space="preserve" text-anchor="middle" x="404" y="-806.88" font-family="sans" font-size="10.00">hisat2_align</text>
</g>
<!-- 3&#45;&gt;6 -->
<g id="edge25" class="edge">
<title>3&#45;&gt;6</title>
<path fill="none" stroke="grey" stroke-width="2" d="M236.24,-865.12C271.25,-853.82 318.14,-838.7 353.44,-827.31"/>
<polygon fill="grey" stroke="grey" stroke-width="2" points="354.09,-830.78 362.53,-824.38 351.94,-824.12 354.09,-830.78"/>
</g>
<!-- 3&#45;&gt;8 -->
<g id="edge28" class="edge">
<title>3&#45;&gt;8</title>
<path fill="none" stroke="grey" stroke-width="2" d="M189.19,-863.11C195.02,-815.46 210.98,-685.05 218.27,-625.45"/>
<polygon fill="grey" stroke="grey" stroke-width="2" points="221.7,-626.24 219.44,-615.89 214.75,-625.39 221.7,-626.24"/>
</g>
<!-- 4 -->
<g id="node5" class="node">
<title>4</title>
<path fill="none" stroke="#d88d56" stroke-width="2" d="M966.12,-900C966.12,-900 911.88,-900 911.88,-900 905.88,-900 899.88,-894 899.88,-888 899.88,-888 899.88,-876 899.88,-876 899.88,-870 905.88,-864 911.88,-864 911.88,-864 966.12,-864 966.12,-864 972.12,-864 978.12,-870 978.12,-876 978.12,-876 978.12,-888 978.12,-888 978.12,-894 972.12,-900 966.12,-900"/>
<text xml:space="preserve" text-anchor="middle" x="939" y="-878.88" font-family="sans" font-size="10.00">hisat2_index</text>
</g>
<!-- 4&#45;&gt;0 -->
<g id="edge4" class="edge">
<title>4&#45;&gt;0</title>
<path fill="none" stroke="grey" stroke-width="2" d="M978.77,-879.02C1102.76,-871.76 1474,-841.46 1474,-739 1474,-739 1474,-739 1474,-161 1474,-102.49 1430.81,-94.97 1377,-72 1304.79,-41.18 751.49,-24.23 595.7,-20.04"/>
<polygon fill="grey" stroke="grey" stroke-width="2" points="595.82,-16.54 585.74,-19.77 595.64,-23.54 595.82,-16.54"/>
</g>
<!-- 4&#45;&gt;6 -->
<g id="edge26" class="edge">
<title>4&#45;&gt;6</title>
<path fill="none" stroke="grey" stroke-width="2" d="M899.23,-875.8C803.78,-863.31 561.81,-831.65 455.47,-817.73"/>
<polygon fill="grey" stroke="grey" stroke-width="2" points="455.96,-814.27 445.59,-816.44 455.05,-821.21 455.96,-814.27"/>
</g>
<!-- 5 -->
<g id="node6" class="node">
<title>5</title>
<path fill="none" stroke="#566bd8" stroke-width="2" d="M434.5,-756C434.5,-756 373.5,-756 373.5,-756 367.5,-756 361.5,-750 361.5,-744 361.5,-744 361.5,-732 361.5,-732 361.5,-726 367.5,-720 373.5,-720 373.5,-720 434.5,-720 434.5,-720 440.5,-720 446.5,-726 446.5,-732 446.5,-732 446.5,-744 446.5,-744 446.5,-750 440.5,-756 434.5,-756"/>
<text xml:space="preserve" text-anchor="middle" x="404" y="-734.88" font-family="sans" font-size="10.00">samtools_sort</text>
</g>
<!-- 5&#45;&gt;0 -->
<g id="edge22" class="edge">
<title>5&#45;&gt;0</title>
<path fill="none" stroke="grey" stroke-width="2" d="M400.69,-719.16C397.23,-701.11 391.41,-672.45 385,-648 370.24,-591.71 346,-581.2 346,-523 346,-523 346,-523 346,-161 346,-115.63 361.02,-100.89 396,-72 430.12,-43.82 479.81,-30.42 514.53,-24.18"/>
<polygon fill="grey" stroke="grey" stroke-width="2" points="514.76,-27.69 524.06,-22.62 513.62,-20.78 514.76,-27.69"/>
</g>
<!-- 7 -->
<g id="node8" class="node">
<title>7</title>
<path fill="none" stroke="#d87d56" stroke-width="2" d="M363.5,-684C363.5,-684 284.5,-684 284.5,-684 278.5,-684 272.5,-678 272.5,-672 272.5,-672 272.5,-660 272.5,-660 272.5,-654 278.5,-648 284.5,-648 284.5,-648 363.5,-648 363.5,-648 369.5,-648 375.5,-654 375.5,-660 375.5,-660 375.5,-672 375.5,-672 375.5,-678 369.5,-684 363.5,-684"/>
<text xml:space="preserve" text-anchor="middle" x="324" y="-662.88" font-family="sans" font-size="10.00">samtools_flagstat</text>
</g>
<!-- 5&#45;&gt;7 -->
<g id="edge27" class="edge">
<title>5&#45;&gt;7</title>
<path fill="none" stroke="grey" stroke-width="2" d="M383.81,-719.34C374.79,-711.44 363.96,-701.96 354.01,-693.26"/>
<polygon fill="grey" stroke="grey" stroke-width="2" points="356.57,-690.85 346.74,-686.9 351.96,-696.11 356.57,-690.85"/>
</g>
<!-- 5&#45;&gt;8 -->
<g id="edge31" class="edge">
<title>5&#45;&gt;8</title>
<path fill="none" stroke="grey" stroke-width="2" d="M360.6,-729.5C330.37,-722.32 290.82,-708.78 264,-684 246.97,-668.27 236.2,-644.21 229.83,-625.07"/>
<polygon fill="grey" stroke="grey" stroke-width="2" points="233.23,-624.22 226.98,-615.67 226.53,-626.25 233.23,-624.22"/>
</g>
<!-- 9 -->
<g id="node10" class="node">
<title>9</title>
<path fill="none" stroke="#d8ac56" stroke-width="2" d="M476.25,-684C476.25,-684 443.75,-684 443.75,-684 437.75,-684 431.75,-678 431.75,-672 431.75,-672 431.75,-660 431.75,-660 431.75,-654 437.75,-648 443.75,-648 443.75,-648 476.25,-648 476.25,-648 482.25,-648 488.25,-654 488.25,-660 488.25,-660 488.25,-672 488.25,-672 488.25,-678 482.25,-684 476.25,-684"/>
<text xml:space="preserve" text-anchor="middle" x="460" y="-662.88" font-family="sans" font-size="10.00">stringtie</text>
</g>
<!-- 5&#45;&gt;9 -->
<g id="edge33" class="edge">
<title>5&#45;&gt;9</title>
<path fill="none" stroke="grey" stroke-width="2" d="M418.13,-719.34C424.05,-711.93 431.09,-703.14 437.68,-694.9"/>
<polygon fill="grey" stroke="grey" stroke-width="2" points="440.27,-697.26 443.79,-687.27 434.81,-692.89 440.27,-697.26"/>
</g>
<!-- 13 -->
<g id="node14" class="node">
<title>13</title>
<path fill="none" stroke="#56d882" stroke-width="2" d="M883.75,-396C883.75,-396 782.25,-396 782.25,-396 776.25,-396 770.25,-390 770.25,-384 770.25,-384 770.25,-372 770.25,-372 770.25,-366 776.25,-360 782.25,-360 782.25,-360 883.75,-360 883.75,-360 889.75,-360 895.75,-366 895.75,-372 895.75,-372 895.75,-384 895.75,-384 895.75,-390 889.75,-396 883.75,-396"/>
<text xml:space="preserve" text-anchor="middle" x="833" y="-374.88" font-family="sans" font-size="10.00">stringtie_with_merged</text>
</g>
<!-- 5&#45;&gt;13 -->
<g id="edge37" class="edge">
<title>5&#45;&gt;13</title>
<path fill="none" stroke="grey" stroke-width="2" d="M447.46,-730.97C550.87,-715.42 803,-669.81 803,-595 803,-595 803,-595 803,-521 803,-481.63 814.18,-437.42 822.89,-408.94"/>
<polygon fill="grey" stroke="grey" stroke-width="2" points="826.17,-410.15 825.87,-399.56 819.5,-408.03 826.17,-410.15"/>
</g>
<!-- 6&#45;&gt;5 -->
<g id="edge24" class="edge">
<title>6&#45;&gt;5</title>
<path fill="none" stroke="grey" stroke-width="2" d="M404,-791.34C404,-784.75 404,-777.08 404,-769.67"/>
<polygon fill="grey" stroke="grey" stroke-width="2" points="407.5,-769.93 404,-759.93 400.5,-769.93 407.5,-769.93"/>
</g>
<!-- 7&#45;&gt;0 -->
<g id="edge3" class="edge">
<title>7&#45;&gt;0</title>
<path fill="none" stroke="grey" stroke-width="2" d="M320.68,-647.14C316,-620.3 308,-567.9 308,-523 308,-523 308,-523 308,-161 308,-120.03 302.6,-100.53 332,-72 357.71,-47.05 457.58,-30.98 514.56,-23.64"/>
<polygon fill="grey" stroke="grey" stroke-width="2" points="514.89,-27.12 524.38,-22.41 514.02,-20.18 514.89,-27.12"/>
</g>
<!-- 7&#45;&gt;8 -->
<g id="edge29" class="edge">
<title>7&#45;&gt;8</title>
<path fill="none" stroke="grey" stroke-width="2" d="M298,-647.15C286.01,-638.93 271.57,-629.02 258.51,-620.06"/>
<polygon fill="grey" stroke="grey" stroke-width="2" points="260.68,-617.3 250.45,-614.53 256.72,-623.07 260.68,-617.3"/>
</g>
<!-- 8&#45;&gt;0 -->
<g id="edge8" class="edge">
<title>8&#45;&gt;0</title>
<path fill="none" stroke="grey" stroke-width="2" d="M226.97,-575.23C234,-548.5 246,-496.25 246,-451 246,-451 246,-451 246,-161 246,-116.06 257.91,-98.78 294,-72 328.5,-46.41 450.38,-30.05 514.65,-23"/>
<polygon fill="grey" stroke="grey" stroke-width="2" points="514.86,-26.5 524.43,-21.96 514.11,-19.54 514.86,-26.5"/>
</g>
<!-- 9&#45;&gt;0 -->
<g id="edge6" class="edge">
<title>9&#45;&gt;0</title>
<path fill="none" stroke="grey" stroke-width="2" d="M443.13,-647.35C420.74,-621.98 384,-572.77 384,-523 384,-523 384,-523 384,-161 384,-114.96 402.63,-102.63 437,-72 459.27,-52.15 490.2,-38.63 514.81,-30.22"/>
<polygon fill="grey" stroke="grey" stroke-width="2" points="515.7,-33.61 524.14,-27.2 513.55,-26.94 515.7,-33.61"/>
</g>
<!-- 10 -->
<g id="node11" class="node">
<title>10</title>
<path fill="none" stroke="#567bd8" stroke-width="2" d="M475,-612C475,-612 445,-612 445,-612 439,-612 433,-606 433,-600 433,-600 433,-588 433,-588 433,-582 439,-576 445,-576 445,-576 475,-576 475,-576 481,-576 487,-582 487,-588 487,-588 487,-600 487,-600 487,-606 481,-612 475,-612"/>
<text xml:space="preserve" text-anchor="middle" x="460" y="-590.88" font-family="sans" font-size="10.00">merge</text>
</g>
<!-- 9&#45;&gt;10 -->
<g id="edge34" class="edge">
<title>9&#45;&gt;10</title>
<path fill="none" stroke="grey" stroke-width="2" d="M460,-647.34C460,-640.75 460,-633.08 460,-625.67"/>
<polygon fill="grey" stroke="grey" stroke-width="2" points="463.5,-625.93 460,-615.93 456.5,-625.93 463.5,-625.93"/>
</g>
<!-- 10&#45;&gt;0 -->
<g id="edge21" class="edge">
<title>10&#45;&gt;0</title>
<path fill="none" stroke="grey" stroke-width="2" d="M451.94,-575.03C440.79,-548.48 422,-496.94 422,-451 422,-451 422,-451 422,-161 422,-105.51 476.77,-62.76 516.02,-39.25"/>
<polygon fill="grey" stroke="grey" stroke-width="2" points="517.58,-42.39 524.5,-34.37 514.08,-36.33 517.58,-42.39"/>
</g>
<!-- 11 -->
<g id="node12" class="node">
<title>11</title>
<path fill="none" stroke="#d8c356" stroke-width="2" d="M558.12,-540C558.12,-540 461.88,-540 461.88,-540 455.88,-540 449.88,-534 449.88,-528 449.88,-528 449.88,-516 449.88,-516 449.88,-510 455.88,-504 461.88,-504 461.88,-504 558.12,-504 558.12,-504 564.12,-504 570.12,-510 570.12,-516 570.12,-516 570.12,-528 570.12,-528 570.12,-534 564.12,-540 558.12,-540"/>
<text xml:space="preserve" text-anchor="middle" x="510" y="-518.88" font-family="sans" font-size="10.00">gffcompare_annotate</text>
</g>
<!-- 10&#45;&gt;11 -->
<g id="edge35" class="edge">
<title>10&#45;&gt;11</title>
<path fill="none" stroke="grey" stroke-width="2" d="M472.62,-575.34C477.79,-568.1 483.91,-559.53 489.68,-551.45"/>
<polygon fill="grey" stroke="grey" stroke-width="2" points="492.49,-553.54 495.45,-543.37 486.79,-549.47 492.49,-553.54"/>
</g>
<!-- 11&#45;&gt;0 -->
<g id="edge7" class="edge">
<title>11&#45;&gt;0</title>
<path fill="none" stroke="grey" stroke-width="2" d="M498.82,-503.43C492.83,-493.37 485.73,-480.34 481,-468 466.45,-430.05 460,-419.64 460,-379 460,-379 460,-379 460,-161 460,-114.3 495.93,-71.34 523.6,-45.17"/>
<polygon fill="grey" stroke="grey" stroke-width="2" points="525.69,-48 530.73,-38.68 520.98,-42.82 525.69,-48"/>
</g>
<!-- 12 -->
<g id="node13" class="node">
<title>12</title>
<path fill="none" stroke="#56a2d8" stroke-width="2" d="M635.88,-468C635.88,-468 502.12,-468 502.12,-468 496.12,-468 490.12,-462 490.12,-456 490.12,-456 490.12,-444 490.12,-444 490.12,-438 496.12,-432 502.12,-432 502.12,-432 635.88,-432 635.88,-432 641.88,-432 647.88,-438 647.88,-444 647.88,-444 647.88,-456 647.88,-456 647.88,-462 641.88,-468 635.88,-468"/>
<text xml:space="preserve" text-anchor="middle" x="569" y="-446.88" font-family="sans" font-size="10.00">gffcompare_clean_annotated</text>
</g>
<!-- 11&#45;&gt;12 -->
<g id="edge36" class="edge">
<title>11&#45;&gt;12</title>
<path fill="none" stroke="grey" stroke-width="2" d="M524.89,-503.34C531.2,-495.85 538.7,-486.95 545.71,-478.63"/>
<polygon fill="grey" stroke="grey" stroke-width="2" points="548.19,-481.12 551.96,-471.22 542.84,-476.61 548.19,-481.12"/>
</g>
<!-- 12&#45;&gt;0 -->
<g id="edge19" class="edge">
<title>12&#45;&gt;0</title>
<path fill="none" stroke="grey" stroke-width="2" d="M553.24,-431.15C532.33,-405.55 498,-356.06 498,-307 498,-307 498,-307 498,-161 498,-119.39 519.34,-75.54 535.9,-47.77"/>
<polygon fill="grey" stroke="grey" stroke-width="2" points="538.75,-49.82 541.04,-39.48 532.8,-46.14 538.75,-49.82"/>
</g>
<!-- 12&#45;&gt;13 -->
<g id="edge38" class="edge">
<title>12&#45;&gt;13</title>
<path fill="none" stroke="grey" stroke-width="2" d="M636.64,-431.06C673.43,-421.31 719.04,-409.22 757.04,-399.14"/>
<polygon fill="grey" stroke="grey" stroke-width="2" points="757.92,-402.53 766.69,-396.58 756.13,-395.76 757.92,-402.53"/>
</g>
<!-- 15 -->
<g id="node16" class="node">
<title>15</title>
<path fill="none" stroke="#d86656" stroke-width="2" d="M604.12,-252C604.12,-252 537.88,-252 537.88,-252 531.88,-252 525.88,-246 525.88,-240 525.88,-240 525.88,-228 525.88,-228 525.88,-222 531.88,-216 537.88,-216 537.88,-216 604.12,-216 604.12,-216 610.12,-216 616.12,-222 616.12,-228 616.12,-228 616.12,-240 616.12,-240 616.12,-246 610.12,-252 604.12,-252"/>
<text xml:space="preserve" text-anchor="middle" x="571" y="-230.88" font-family="sans" font-size="10.00">isoform_switch</text>
</g>
<!-- 12&#45;&gt;15 -->
<g id="edge40" class="edge">
<title>12&#45;&gt;15</title>
<path fill="none" stroke="grey" stroke-width="2" d="M569.17,-431.12C569.51,-394.62 570.29,-311.13 570.71,-265.74"/>
<polygon fill="grey" stroke="grey" stroke-width="2" points="574.21,-266.04 570.8,-256 567.21,-265.97 574.21,-266.04"/>
</g>
<!-- 13&#45;&gt;0 -->
<g id="edge13" class="edge">
<title>13&#45;&gt;0</title>
<path fill="none" stroke="grey" stroke-width="2" d="M896.68,-375.41C1051.68,-369.83 1436,-344.9 1436,-235 1436,-235 1436,-235 1436,-161 1436,-138.43 1489.34,-134.75 1322,-72 1186.99,-21.37 733.55,-18.45 595.33,-18.77"/>
<polygon fill="grey" stroke="grey" stroke-width="2" points="595.61,-15.27 585.62,-18.8 595.64,-22.27 595.61,-15.27"/>
</g>
<!-- 14 -->
<g id="node15" class="node">
<title>14</title>
<path fill="none" stroke="#a7d856" stroke-width="2" d="M962.5,-324C962.5,-324 823.5,-324 823.5,-324 817.5,-324 811.5,-318 811.5,-312 811.5,-312 811.5,-300 811.5,-300 811.5,-294 817.5,-288 823.5,-288 823.5,-288 962.5,-288 962.5,-288 968.5,-288 974.5,-294 974.5,-300 974.5,-300 974.5,-312 974.5,-312 974.5,-318 968.5,-324 962.5,-324"/>
<text xml:space="preserve" text-anchor="middle" x="893" y="-302.88" font-family="sans" font-size="10.00">build_count_matrices_merged</text>
</g>
<!-- 13&#45;&gt;14 -->
<g id="edge39" class="edge">
<title>13&#45;&gt;14</title>
<path fill="none" stroke="grey" stroke-width="2" d="M848.14,-359.34C854.56,-351.85 862.19,-342.95 869.32,-334.63"/>
<polygon fill="grey" stroke="grey" stroke-width="2" points="871.84,-337.07 875.69,-327.2 866.52,-332.51 871.84,-337.07"/>
</g>
<!-- 14&#45;&gt;0 -->
<g id="edge9" class="edge">
<title>14&#45;&gt;0</title>
<path fill="none" stroke="grey" stroke-width="2" d="M817.62,-287.04C759.01,-269.29 679.85,-236.42 632,-180 598.32,-140.29 575.68,-83.35 564.1,-48.9"/>
<polygon fill="grey" stroke="grey" stroke-width="2" points="567.55,-48.19 561.13,-39.76 560.89,-50.35 567.55,-48.19"/>
</g>
<!-- 14&#45;&gt;15 -->
<g id="edge41" class="edge">
<title>14&#45;&gt;15</title>
<path fill="none" stroke="grey" stroke-width="2" d="M810.58,-290.18C758.56,-280.39 690.06,-266.68 630,-252 629.73,-251.94 629.47,-251.87 629.2,-251.8"/>
<polygon fill="grey" stroke="grey" stroke-width="2" points="630.45,-248.51 619.89,-249.39 628.7,-255.29 630.45,-248.51"/>
</g>
<!-- 16 -->
<g id="node17" class="node">
<title>16</title>
<path fill="none" stroke="#d85656" stroke-width="2" d="M1266.25,-252C1266.25,-252 1209.75,-252 1209.75,-252 1203.75,-252 1197.75,-246 1197.75,-240 1197.75,-240 1197.75,-228 1197.75,-228 1197.75,-222 1203.75,-216 1209.75,-216 1209.75,-216 1266.25,-216 1266.25,-216 1272.25,-216 1278.25,-222 1278.25,-228 1278.25,-228 1278.25,-240 1278.25,-240 1278.25,-246 1272.25,-252 1266.25,-252"/>
<text xml:space="preserve" text-anchor="middle" x="1238" y="-230.88" font-family="sans" font-size="10.00">deseq2_gene</text>
</g>
<!-- 14&#45;&gt;16 -->
<g id="edge42" class="edge">
<title>14&#45;&gt;16</title>
<path fill="none" stroke="grey" stroke-width="2" d="M975.41,-291.25C1031.83,-281.42 1108.23,-267.26 1175,-252 1178.09,-251.29 1181.26,-250.54 1184.45,-249.75"/>
<polygon fill="grey" stroke="grey" stroke-width="2" points="1185.01,-253.22 1193.84,-247.36 1183.28,-246.44 1185.01,-253.22"/>
</g>
<!-- 17 -->
<g id="node18" class="node">
<title>17</title>
<path fill="none" stroke="#d89c56" stroke-width="2" d="M873.5,-252C873.5,-252 794.5,-252 794.5,-252 788.5,-252 782.5,-246 782.5,-240 782.5,-240 782.5,-228 782.5,-228 782.5,-222 788.5,-216 794.5,-216 794.5,-216 873.5,-216 873.5,-216 879.5,-216 885.5,-222 885.5,-228 885.5,-228 885.5,-240 885.5,-240 885.5,-246 879.5,-252 873.5,-252"/>
<text xml:space="preserve" text-anchor="middle" x="834" y="-230.88" font-family="sans" font-size="10.00">deseq2_transcript</text>
</g>
<!-- 14&#45;&gt;17 -->
<g id="edge43" class="edge">
<title>14&#45;&gt;17</title>
<path fill="none" stroke="grey" stroke-width="2" d="M878.11,-287.34C871.8,-279.85 864.3,-270.95 857.29,-262.63"/>
<polygon fill="grey" stroke="grey" stroke-width="2" points="860.16,-260.61 851.04,-255.22 854.81,-265.12 860.16,-260.61"/>
</g>
<!-- 18 -->
<g id="node19" class="node">
<title>18</title>
<path fill="none" stroke="#56b1d8" stroke-width="2" d="M1396.25,-180C1396.25,-180 1315.75,-180 1315.75,-180 1309.75,-180 1303.75,-174 1303.75,-168 1303.75,-168 1303.75,-156 1303.75,-156 1303.75,-150 1309.75,-144 1315.75,-144 1315.75,-144 1396.25,-144 1396.25,-144 1402.25,-144 1408.25,-150 1408.25,-156 1408.25,-156 1408.25,-168 1408.25,-168 1408.25,-174 1402.25,-180 1396.25,-180"/>
<text xml:space="preserve" text-anchor="middle" x="1356" y="-158.88" font-family="sans" font-size="10.00">plot_deseq2_gene</text>
</g>
<!-- 14&#45;&gt;18 -->
<g id="edge45" class="edge">
<title>14&#45;&gt;18</title>
<path fill="none" stroke="grey" stroke-width="2" d="M975.38,-301.22C1074.92,-295.4 1235.49,-281.67 1287,-252 1311.08,-238.13 1329.69,-212.24 1341.48,-191.94"/>
<polygon fill="grey" stroke="grey" stroke-width="2" points="1344.41,-193.87 1346.16,-183.42 1338.28,-190.5 1344.41,-193.87"/>
</g>
<!-- 19 -->
<g id="node20" class="node">
<title>19</title>
<path fill="none" stroke="#97d856" stroke-width="2" d="M755.5,-180C755.5,-180 652.5,-180 652.5,-180 646.5,-180 640.5,-174 640.5,-168 640.5,-168 640.5,-156 640.5,-156 640.5,-150 646.5,-144 652.5,-144 652.5,-144 755.5,-144 755.5,-144 761.5,-144 767.5,-150 767.5,-156 767.5,-156 767.5,-168 767.5,-168 767.5,-174 761.5,-180 755.5,-180"/>
<text xml:space="preserve" text-anchor="middle" x="704" y="-158.88" font-family="sans" font-size="10.00">plot_deseq2_transcript</text>
</g>
<!-- 14&#45;&gt;19 -->
<g id="edge47" class="edge">
<title>14&#45;&gt;19</title>
<path fill="none" stroke="grey" stroke-width="2" d="M838.09,-287.03C816.79,-278.46 793,-266.8 774,-252 752.58,-235.32 733.9,-210.73 721.23,-191.62"/>
<polygon fill="grey" stroke="grey" stroke-width="2" points="724.3,-189.92 715.96,-183.38 718.4,-193.69 724.3,-189.92"/>
</g>
<!-- 21 -->
<g id="node22" class="node">
<title>21</title>
<path fill="none" stroke="#568ad8" stroke-width="2" d="M1197.5,-180C1197.5,-180 1106.5,-180 1106.5,-180 1100.5,-180 1094.5,-174 1094.5,-168 1094.5,-168 1094.5,-156 1094.5,-156 1094.5,-150 1100.5,-144 1106.5,-144 1106.5,-144 1197.5,-144 1197.5,-144 1203.5,-144 1209.5,-150 1209.5,-156 1209.5,-156 1209.5,-168 1209.5,-168 1209.5,-174 1203.5,-180 1197.5,-180"/>
<text xml:space="preserve" text-anchor="middle" x="1152" y="-158.88" font-family="sans" font-size="10.00">enrich_gene_targets</text>
</g>
<!-- 14&#45;&gt;21 -->
<g id="edge50" class="edge">
<title>14&#45;&gt;21</title>
<path fill="none" stroke="grey" stroke-width="2" d="M975.22,-297.78C1038.89,-290.39 1119.85,-276.43 1142,-252 1156.03,-236.52 1158.09,-212.77 1156.88,-193.69"/>
<polygon fill="grey" stroke="grey" stroke-width="2" points="1160.37,-193.41 1155.85,-183.83 1153.4,-194.14 1160.37,-193.41"/>
</g>
<!-- 22 -->
<g id="node23" class="node">
<title>22</title>
<path fill="none" stroke="#56d85b" stroke-width="2" d="M987.75,-180C987.75,-180 874.25,-180 874.25,-180 868.25,-180 862.25,-174 862.25,-168 862.25,-168 862.25,-156 862.25,-156 862.25,-150 868.25,-144 874.25,-144 874.25,-144 987.75,-144 987.75,-144 993.75,-144 999.75,-150 999.75,-156 999.75,-156 999.75,-168 999.75,-168 999.75,-174 993.75,-180 987.75,-180"/>
<text xml:space="preserve" text-anchor="middle" x="931" y="-158.88" font-family="sans" font-size="10.00">enrich_transcript_targets</text>
</g>
<!-- 14&#45;&gt;22 -->
<g id="edge53" class="edge">
<title>14&#45;&gt;22</title>
<path fill="none" stroke="grey" stroke-width="2" d="M897.81,-287.02C904.12,-263.44 915.28,-221.73 922.9,-193.25"/>
<polygon fill="grey" stroke="grey" stroke-width="2" points="926.24,-194.33 925.44,-183.76 919.48,-192.52 926.24,-194.33"/>
</g>
<!-- 23 -->
<g id="node24" class="node">
<title>23</title>
<path fill="none" stroke="#56d8b9" stroke-width="2" d="M967.5,-108C967.5,-108 894.5,-108 894.5,-108 888.5,-108 882.5,-102 882.5,-96 882.5,-96 882.5,-84 882.5,-84 882.5,-78 888.5,-72 894.5,-72 894.5,-72 967.5,-72 967.5,-72 973.5,-72 979.5,-78 979.5,-84 979.5,-84 979.5,-96 979.5,-96 979.5,-102 973.5,-108 967.5,-108"/>
<text xml:space="preserve" text-anchor="middle" x="931" y="-86.88" font-family="sans" font-size="10.00">summary_report</text>
</g>
<!-- 14&#45;&gt;23 -->
<g id="edge56" class="edge">
<title>14&#45;&gt;23</title>
<path fill="none" stroke="grey" stroke-width="2" d="M918.51,-287.06C946.81,-265.43 990.88,-226.16 1009,-180 1014.85,-165.11 1016.49,-158.14 1009,-144 1003.02,-132.71 993.45,-123.39 983.02,-115.87"/>
<polygon fill="grey" stroke="grey" stroke-width="2" points="985.24,-113.14 974.95,-110.6 981.41,-119 985.24,-113.14"/>
</g>
<!-- 15&#45;&gt;0 -->
<g id="edge2" class="edge">
<title>15&#45;&gt;0</title>
<path fill="none" stroke="grey" stroke-width="2" d="M566.56,-215.46C564.16,-205.2 561.41,-191.95 560,-180 554.67,-135 554.09,-82.47 554.37,-49.97"/>
<polygon fill="grey" stroke="grey" stroke-width="2" points="557.87,-50.02 554.51,-39.97 550.87,-49.92 557.87,-50.02"/>
</g>
<!-- 15&#45;&gt;23 -->
<g id="edge55" class="edge">
<title>15&#45;&gt;23</title>
<path fill="none" stroke="grey" stroke-width="2" d="M578.13,-215.09C587.33,-194.45 605.39,-161.16 632,-144 670.27,-119.32 793.05,-103.82 868.85,-96.34"/>
<polygon fill="grey" stroke="grey" stroke-width="2" points="868.88,-99.85 878.5,-95.41 868.21,-92.89 868.88,-99.85"/>
</g>
<!-- 16&#45;&gt;0 -->
<g id="edge1" class="edge">
<title>16&#45;&gt;0</title>
<path fill="none" stroke="grey" stroke-width="2" d="M1244.14,-215.26C1249.56,-196.26 1254.81,-165.9 1242,-144 1209.05,-87.66 1176.29,-91.5 1114,-72 1017.1,-41.66 707.77,-25.6 595.88,-20.67"/>
<polygon fill="grey" stroke="grey" stroke-width="2" points="596.11,-17.18 585.96,-20.25 595.8,-24.17 596.11,-17.18"/>
</g>
<!-- 16&#45;&gt;18 -->
<g id="edge44" class="edge">
<title>16&#45;&gt;18</title>
<path fill="none" stroke="grey" stroke-width="2" d="M1268.08,-215.15C1282.37,-206.68 1299.66,-196.42 1315.11,-187.25"/>
<polygon fill="grey" stroke="grey" stroke-width="2" points="1316.55,-190.47 1323.37,-182.36 1312.98,-184.45 1316.55,-190.47"/>
</g>
<!-- 16&#45;&gt;21 -->
<g id="edge49" class="edge">
<title>16&#45;&gt;21</title>
<path fill="none" stroke="grey" stroke-width="2" d="M1216.3,-215.34C1206.49,-207.36 1194.71,-197.77 1183.93,-188.99"/>
<polygon fill="grey" stroke="grey" stroke-width="2" points="1186.31,-186.41 1176.34,-182.81 1181.89,-191.84 1186.31,-186.41"/>
</g>
<!-- 16&#45;&gt;23 -->
<g id="edge54" class="edge">
<title>16&#45;&gt;23</title>
<path fill="none" stroke="grey" stroke-width="2" d="M1239.56,-215.24C1240.27,-195.05 1238.03,-162.5 1219,-144 1187.62,-113.5 1068.19,-100.05 993.34,-94.51"/>
<polygon fill="grey" stroke="grey" stroke-width="2" points="993.6,-91.03 983.38,-93.81 993.11,-98.01 993.6,-91.03"/>
</g>
<!-- 17&#45;&gt;0 -->
<g id="edge5" class="edge">
<title>17&#45;&gt;0</title>
<path fill="none" stroke="grey" stroke-width="2" d="M825.86,-215.14C816.32,-195.75 799.01,-164.79 777,-144 722.25,-92.28 642.11,-54.06 594.59,-34.26"/>
<polygon fill="grey" stroke="grey" stroke-width="2" points="596.05,-31.08 585.47,-30.54 593.41,-37.56 596.05,-31.08"/>
</g>
<!-- 17&#45;&gt;19 -->
<g id="edge46" class="edge">
<title>17&#45;&gt;19</title>
<path fill="none" stroke="grey" stroke-width="2" d="M800.86,-215.15C784.97,-206.6 765.7,-196.22 748.55,-186.99"/>
<polygon fill="grey" stroke="grey" stroke-width="2" points="750.21,-183.91 739.75,-182.25 746.89,-190.07 750.21,-183.91"/>
</g>
<!-- 17&#45;&gt;22 -->
<g id="edge52" class="edge">
<title>17&#45;&gt;22</title>
<path fill="none" stroke="grey" stroke-width="2" d="M858.73,-215.15C870.02,-207.01 883.59,-197.22 895.9,-188.33"/>
<polygon fill="grey" stroke="grey" stroke-width="2" points="897.8,-191.27 903.86,-182.58 893.71,-185.6 897.8,-191.27"/>
</g>
<!-- 17&#45;&gt;23 -->
<g id="edge58" class="edge">
<title>17&#45;&gt;23</title>
<path fill="none" stroke="grey" stroke-width="2" d="M833.99,-215.11C834.81,-195.98 838.54,-165.5 853,-144 860.48,-132.88 871.15,-123.46 882.2,-115.78"/>
<polygon fill="grey" stroke="grey" stroke-width="2" points="883.76,-118.94 890.28,-110.59 879.98,-113.05 883.76,-118.94"/>
</g>
<!-- 18&#45;&gt;0 -->
<g id="edge18" class="edge">
<title>18&#45;&gt;0</title>
<path fill="none" stroke="grey" stroke-width="2" d="M1348.54,-143.32C1338.59,-122.23 1318.83,-87.84 1290,-72 1229.03,-38.51 741.18,-23.67 595.77,-19.96"/>
<polygon fill="grey" stroke="grey" stroke-width="2" points="595.9,-16.47 585.81,-19.72 595.72,-23.46 595.9,-16.47"/>
</g>
<!-- 18&#45;&gt;23 -->
<g id="edge57" class="edge">
<title>18&#45;&gt;23</title>
<path fill="none" stroke="grey" stroke-width="2" d="M1303.03,-152.28C1224.27,-139.3 1076.61,-114.98 992.95,-101.2"/>
<polygon fill="grey" stroke="grey" stroke-width="2" points="993.77,-97.79 983.33,-99.62 992.63,-104.7 993.77,-97.79"/>
</g>
<!-- 19&#45;&gt;0 -->
<g id="edge10" class="edge">
<title>19&#45;&gt;0</title>
<path fill="none" stroke="grey" stroke-width="2" d="M685.13,-143.02C659.27,-118.37 612.63,-73.92 582.77,-45.47"/>
<polygon fill="grey" stroke="grey" stroke-width="2" points="585.56,-43.29 575.91,-38.93 580.73,-48.36 585.56,-43.29"/>
</g>
<!-- 19&#45;&gt;23 -->
<g id="edge59" class="edge">
<title>19&#45;&gt;23</title>
<path fill="none" stroke="grey" stroke-width="2" d="M762.16,-143.06C795.01,-132.93 836.05,-120.28 869.43,-109.98"/>
<polygon fill="grey" stroke="grey" stroke-width="2" points="870.41,-113.35 878.93,-107.06 868.34,-106.66 870.41,-113.35"/>
</g>
<!-- 20 -->
<g id="node21" class="node">
<title>20</title>
<path fill="none" stroke="#56d8a9" stroke-width="2" d="M1121,-252C1121,-252 1039,-252 1039,-252 1033,-252 1027,-246 1027,-240 1027,-240 1027,-228 1027,-228 1027,-222 1033,-216 1039,-216 1039,-216 1121,-216 1121,-216 1127,-216 1133,-222 1133,-228 1133,-228 1133,-240 1133,-240 1133,-246 1127,-252 1121,-252"/>
<text xml:space="preserve" text-anchor="middle" x="1080" y="-230.88" font-family="sans" font-size="10.00">build_pc_gene_set</text>
</g>
<!-- 20&#45;&gt;0 -->
<g id="edge15" class="edge">
<title>20&#45;&gt;0</title>
<path fill="none" stroke="grey" stroke-width="2" d="M1075.61,-215.07C1066.22,-180.83 1040.66,-106.51 989,-72 925.15,-29.35 691.19,-21.01 595.85,-19.39"/>
<polygon fill="grey" stroke="grey" stroke-width="2" points="595.9,-15.89 585.85,-19.24 595.8,-22.89 595.9,-15.89"/>
</g>
<!-- 20&#45;&gt;21 -->
<g id="edge48" class="edge">
<title>20&#45;&gt;21</title>
<path fill="none" stroke="grey" stroke-width="2" d="M1098.17,-215.34C1106.12,-207.6 1115.63,-198.36 1124.43,-189.81"/>
<polygon fill="grey" stroke="grey" stroke-width="2" points="1126.69,-192.49 1131.42,-183.01 1121.81,-187.47 1126.69,-192.49"/>
</g>
<!-- 20&#45;&gt;22 -->
<g id="edge51" class="edge">
<title>20&#45;&gt;22</title>
<path fill="none" stroke="grey" stroke-width="2" d="M1042.02,-215.15C1023.44,-206.43 1000.83,-195.81 980.88,-186.43"/>
<polygon fill="grey" stroke="grey" stroke-width="2" points="982.45,-183.31 971.91,-182.22 979.48,-189.64 982.45,-183.31"/>
</g>
<!-- 21&#45;&gt;0 -->
<g id="edge20" class="edge">
<title>21&#45;&gt;0</title>
<path fill="none" stroke="grey" stroke-width="2" d="M1143.15,-143.06C1131.72,-122.04 1109.72,-88.07 1080,-72 996.44,-26.83 703.74,-20.06 595.57,-19.12"/>
<polygon fill="grey" stroke="grey" stroke-width="2" points="595.79,-15.62 585.77,-19.05 595.74,-22.62 595.79,-15.62"/>
</g>
<!-- 21&#45;&gt;23 -->
<g id="edge60" class="edge">
<title>21&#45;&gt;23</title>
<path fill="none" stroke="grey" stroke-width="2" d="M1095.37,-143.06C1063.99,-133.12 1024.92,-120.75 992.75,-110.56"/>
<polygon fill="grey" stroke="grey" stroke-width="2" points="993.82,-107.23 983.23,-107.54 991.7,-113.9 993.82,-107.23"/>
</g>
<!-- 22&#45;&gt;0 -->
<g id="edge11" class="edge">
<title>22&#45;&gt;0</title>
<path fill="none" stroke="grey" stroke-width="2" d="M912.12,-143.01C889.62,-122.6 850.01,-89.85 810,-72 738.73,-40.21 647.67,-27.2 595.88,-22.09"/>
<polygon fill="grey" stroke="grey" stroke-width="2" points="596.28,-18.61 586,-21.18 595.64,-25.58 596.28,-18.61"/>
</g>
<!-- 22&#45;&gt;23 -->
<g id="edge61" class="edge">
<title>22&#45;&gt;23</title>
<path fill="none" stroke="grey" stroke-width="2" d="M931,-143.34C931,-136.75 931,-129.08 931,-121.67"/>
<polygon fill="grey" stroke="grey" stroke-width="2" points="934.5,-121.93 931,-111.93 927.5,-121.93 934.5,-121.93"/>
</g>
<!-- 23&#45;&gt;0 -->
<g id="edge16" class="edge">
<title>23&#45;&gt;0</title>
<path fill="none" stroke="grey" stroke-width="2" d="M881.6,-77.1C873.72,-75.32 865.65,-73.56 858,-72 764.31,-52.91 653.45,-34.6 595.27,-25.31"/>
<polygon fill="grey" stroke="grey" stroke-width="2" points="596.08,-21.9 585.66,-23.79 594.99,-28.81 596.08,-21.9"/>
</g>
</g>
</svg>
