<?xml version="1.0" encoding="UTF-8" standalone="no"?>
<!DOCTYPE svg PUBLIC "-//W3C//DTD SVG 1.1//EN"
 "http://www.w3.org/Graphics/SVG/1.1/DTD/svg11.dtd">
<!-- Generated by graphviz version 13.1.0 (20250701.1702)
 -->
<!-- Title: snakemake_dag Pages: 1 -->
<svg width="614pt" height="126pt"
 viewBox="0.00 0.00 614.00 126.00" xmlns="http://www.w3.org/2000/svg" xmlns:xlink="http://www.w3.org/1999/xlink">
<g id="graph0" class="graph" transform="scale(1 1) rotate(0) translate(4 122.25)">
<title>snakemake_dag</title>
<polygon fill="white" stroke="none" points="-4,4 -4,-122.25 609.5,-122.25 609.5,4 -4,4"/>
<!-- 0 -->
<g id="node1" class="node">
<title>0</title>
<path fill="none" stroke="#59d856" stroke-width="2" d="M317.75,-36C317.75,-36 287.75,-36 287.75,-36 281.75,-36 275.75,-30 275.75,-24 275.75,-24 275.75,-12 275.75,-12 275.75,-6 281.75,0 287.75,0 287.75,0 317.75,0 317.75,0 323.75,0 329.75,-6 329.75,-12 329.75,-12 329.75,-24 329.75,-24 329.75,-30 323.75,-36 317.75,-36"/>
<text xml:space="preserve" text-anchor="middle" x="302.75" y="-14.88" font-family="sans" font-size="10.00">all</text>
</g>
<!-- 1 -->
<g id="node2" class="node">
<title>1</title>
<path fill="none" stroke="#d85656" stroke-width="2" d="M125.5,-118.25C125.5,-118.25 12,-118.25 12,-118.25 6,-118.25 0,-112.25 0,-106.25 0,-106.25 0,-84 0,-84 0,-78 6,-72 12,-72 12,-72 125.5,-72 125.5,-72 131.5,-72 137.5,-78 137.5,-84 137.5,-84 137.5,-106.25 137.5,-106.25 137.5,-112.25 131.5,-118.25 125.5,-118.25"/>
<text xml:space="preserve" text-anchor="middle" x="68.75" y="-104.75" font-family="sans" font-size="10.00">prefetch_sra_sample</text>
<text xml:space="preserve" text-anchor="middle" x="68.75" y="-92" font-family="sans" font-size="10.00">accession: SRR12601577</text>
<text xml:space="preserve" text-anchor="middle" x="68.75" y="-79.25" font-family="sans" font-size="10.00">bioproject: PRJNA661769</text>
</g>
<!-- 1&#45;&gt;0 -->
<g id="edge1" class="edge">
<title>1&#45;&gt;0</title>
<path fill="none" stroke="grey" stroke-width="2" d="M138.32,-71.79C178.82,-58.79 228.44,-42.86 262.52,-31.92"/>
<polygon fill="grey" stroke="grey" stroke-width="2" points="263.43,-35.3 271.88,-28.91 261.29,-28.64 263.43,-35.3"/>
</g>
<!-- 2 -->
<g id="node3" class="node">
<title>2</title>
<path fill="none" stroke="#d85656" stroke-width="2" d="M281.5,-118.25C281.5,-118.25 168,-118.25 168,-118.25 162,-118.25 156,-112.25 156,-106.25 156,-106.25 156,-84 156,-84 156,-78 162,-72 168,-72 168,-72 281.5,-72 281.5,-72 287.5,-72 293.5,-78 293.5,-84 293.5,-84 293.5,-106.25 293.5,-106.25 293.5,-112.25 287.5,-118.25 281.5,-118.25"/>
<text xml:space="preserve" text-anchor="middle" x="224.75" y="-104.75" font-family="sans" font-size="10.00">prefetch_sra_sample</text>
<text xml:space="preserve" text-anchor="middle" x="224.75" y="-92" font-family="sans" font-size="10.00">accession: SRR12601578</text>
<text xml:space="preserve" text-anchor="middle" x="224.75" y="-79.25" font-family="sans" font-size="10.00">bioproject: PRJNA661769</text>
</g>
<!-- 2&#45;&gt;0 -->
<g id="edge2" class="edge">
<title>2&#45;&gt;0</title>
<path fill="none" stroke="grey" stroke-width="2" d="M248.58,-71.18C256.91,-63.15 266.34,-54.07 274.97,-45.76"/>
<polygon fill="grey" stroke="grey" stroke-width="2" points="277.31,-48.36 282.08,-38.9 272.45,-43.32 277.31,-48.36"/>
</g>
<!-- 3 -->
<g id="node4" class="node">
<title>3</title>
<path fill="none" stroke="#d85656" stroke-width="2" d="M437.5,-118.25C437.5,-118.25 324,-118.25 324,-118.25 318,-118.25 312,-112.25 312,-106.25 312,-106.25 312,-84 312,-84 312,-78 318,-72 324,-72 324,-72 437.5,-72 437.5,-72 443.5,-72 449.5,-78 449.5,-84 449.5,-84 449.5,-106.25 449.5,-106.25 449.5,-112.25 443.5,-118.25 437.5,-118.25"/>
<text xml:space="preserve" text-anchor="middle" x="380.75" y="-104.75" font-family="sans" font-size="10.00">prefetch_sra_sample</text>
<text xml:space="preserve" text-anchor="middle" x="380.75" y="-92" font-family="sans" font-size="10.00">accession: SRR12601580</text>
<text xml:space="preserve" text-anchor="middle" x="380.75" y="-79.25" font-family="sans" font-size="10.00">bioproject: PRJNA661769</text>
</g>
<!-- 3&#45;&gt;0 -->
<g id="edge3" class="edge">
<title>3&#45;&gt;0</title>
<path fill="none" stroke="grey" stroke-width="2" d="M356.92,-71.18C348.59,-63.15 339.16,-54.07 330.53,-45.76"/>
<polygon fill="grey" stroke="grey" stroke-width="2" points="333.05,-43.32 323.42,-38.9 328.19,-48.36 333.05,-43.32"/>
</g>
<!-- 4 -->
<g id="node5" class="node">
<title>4</title>
<path fill="none" stroke="#d85656" stroke-width="2" d="M593.5,-118.25C593.5,-118.25 480,-118.25 480,-118.25 474,-118.25 468,-112.25 468,-106.25 468,-106.25 468,-84 468,-84 468,-78 474,-72 480,-72 480,-72 593.5,-72 593.5,-72 599.5,-72 605.5,-78 605.5,-84 605.5,-84 605.5,-106.25 605.5,-106.25 605.5,-112.25 599.5,-118.25 593.5,-118.25"/>
<text xml:space="preserve" text-anchor="middle" x="536.75" y="-104.75" font-family="sans" font-size="10.00">prefetch_sra_sample</text>
<text xml:space="preserve" text-anchor="middle" x="536.75" y="-92" font-family="sans" font-size="10.00">accession: SRR12601581</text>
<text xml:space="preserve" text-anchor="middle" x="536.75" y="-79.25" font-family="sans" font-size="10.00">bioproject: PRJNA661769</text>
</g>
<!-- 4&#45;&gt;0 -->
<g id="edge4" class="edge">
<title>4&#45;&gt;0</title>
<path fill="none" stroke="grey" stroke-width="2" d="M467.18,-71.79C426.68,-58.79 377.06,-42.86 342.98,-31.92"/>
<polygon fill="grey" stroke="grey" stroke-width="2" points="344.21,-28.64 333.62,-28.91 342.07,-35.3 344.21,-28.64"/>
</g>
</g>
</svg>
