<?xml version="1.0" encoding="UTF-8" standalone="no"?>
<!DOCTYPE svg PUBLIC "-//W3C//DTD SVG 1.1//EN"
 "http://www.w3.org/Graphics/SVG/1.1/DTD/svg11.dtd">
<!-- Generated by graphviz version 13.1.0 (20250701.1702)
 -->
<!-- Title: snakemake_dag Pages: 1 -->
<svg width="126pt" height="116pt"
 viewBox="0.00 0.00 126.00 116.00" xmlns="http://www.w3.org/2000/svg" xmlns:xlink="http://www.w3.org/1999/xlink">
<g id="graph0" class="graph" transform="scale(1 1) rotate(0) translate(4 112)">
<title>snakemake_dag</title>
<polygon fill="white" stroke="none" points="-4,4 -4,-112 122,-112 122,4 -4,4"/>
<!-- 0 -->
<g id="node1" class="node">
<title>0</title>
<path fill="none" stroke="#59d856" stroke-width="2" d="M74,-36C74,-36 44,-36 44,-36 38,-36 32,-30 32,-24 32,-24 32,-12 32,-12 32,-6 38,0 44,0 44,0 74,0 74,0 80,0 86,-6 86,-12 86,-12 86,-24 86,-24 86,-30 80,-36 74,-36"/>
<text xml:space="preserve" text-anchor="middle" x="59" y="-14.88" font-family="sans" font-size="10.00">all</text>
</g>
<!-- 1 -->
<g id="node2" class="node">
<title>1</title>
<path fill="none" stroke="#d85656" stroke-width="2" d="M106,-108C106,-108 12,-108 12,-108 6,-108 0,-102 0,-96 0,-96 0,-84 0,-84 0,-78 6,-72 12,-72 12,-72 106,-72 106,-72 112,-72 118,-78 118,-84 118,-84 118,-96 118,-96 118,-102 112,-108 106,-108"/>
<text xml:space="preserve" text-anchor="middle" x="59" y="-86.88" font-family="sans" font-size="10.00">prefetch_sra_sample</text>
</g>
<!-- 1&#45;&gt;0 -->
<g id="edge1" class="edge">
<title>1&#45;&gt;0</title>
<path fill="none" stroke="grey" stroke-width="2" d="M59,-71.34C59,-64.75 59,-57.08 59,-49.67"/>
<polygon fill="grey" stroke="grey" stroke-width="2" points="62.5,-49.93 59,-39.93 55.5,-49.93 62.5,-49.93"/>
</g>
</g>
</svg>
