<?xml version="1.0" encoding="UTF-8" standalone="no"?>
<!DOCTYPE svg PUBLIC "-//W3C//DTD SVG 1.1//EN"
 "http://www.w3.org/Graphics/SVG/1.1/DTD/svg11.dtd">
<!-- Generated by graphviz version 13.1.0 (20250701.1702)
 -->
<!-- Title: snakemake_dag Pages: 1 -->
<svg width="1176pt" height="764pt"
 viewBox="0.00 0.00 1176.00 764.00" xmlns="http://www.w3.org/2000/svg" xmlns:xlink="http://www.w3.org/1999/xlink">
<g id="graph0" class="graph" transform="scale(1 1) rotate(0) translate(4 760)">
<title>snakemake_dag</title>
<polygon fill="white" stroke="none" points="-4,4 -4,-760 1172.38,-760 1172.38,4 -4,4"/>
<!-- 0 -->
<g id="node1" class="node">
<title>0</title>
<path fill="none" stroke="#d6d856" stroke-width="2" d="M553,-36C553,-36 523,-36 523,-36 517,-36 511,-30 511,-24 511,-24 511,-12 511,-12 511,-6 517,0 523,0 523,0 553,0 553,0 559,0 565,-6 565,-12 565,-12 565,-24 565,-24 565,-30 559,-36 553,-36"/>
<text xml:space="preserve" text-anchor="middle" x="538" y="-14.88" font-family="sans" font-size="10.00">all</text>
</g>
<!-- 1 -->
<g id="node2" class="node">
<title>1</title>
<path fill="none" stroke="#a7d856" stroke-width="2" d="M188.12,-684C188.12,-684 73.88,-684 73.88,-684 67.88,-684 61.88,-678 61.88,-672 61.88,-672 61.88,-660 61.88,-660 61.88,-654 67.88,-648 73.88,-648 73.88,-648 188.12,-648 188.12,-648 194.12,-648 200.12,-654 200.12,-660 200.12,-660 200.12,-672 200.12,-672 200.12,-678 194.12,-684 188.12,-684"/>
<text xml:space="preserve" text-anchor="middle" x="131" y="-662.88" font-family="sans" font-size="10.00">download_mirbase_fasta</text>
</g>
<!-- 1&#45;&gt;0 -->
<g id="edge8" class="edge">
<title>1&#45;&gt;0</title>
<path fill="none" stroke="grey" stroke-width="2" d="M96.92,-647.2C58.11,-624.19 0,-580.19 0,-523 0,-523 0,-523 0,-161 0,-116.27 9.99,-97.12 47,-72 119.99,-22.47 392.85,-18.32 497.13,-18.6"/>
<polygon fill="grey" stroke="grey" stroke-width="2" points="497.08,-22.1 507.09,-18.65 497.11,-15.1 497.08,-22.1"/>
</g>
<!-- 2 -->
<g id="node3" class="node">
<title>2</title>
<path fill="none" stroke="#d85656" stroke-width="2" d="M157,-540C157,-540 105,-540 105,-540 99,-540 93,-534 93,-528 93,-528 93,-516 93,-516 93,-510 99,-504 105,-504 105,-504 157,-504 157,-504 163,-504 169,-510 169,-516 169,-516 169,-528 169,-528 169,-534 163,-540 157,-540"/>
<text xml:space="preserve" text-anchor="middle" x="131" y="-518.88" font-family="sans" font-size="10.00">fasta_to_saf</text>
</g>
<!-- 1&#45;&gt;2 -->
<g id="edge20" class="edge">
<title>1&#45;&gt;2</title>
<path fill="none" stroke="grey" stroke-width="2" d="M131,-647.02C131,-623.54 131,-582.11 131,-553.64"/>
<polygon fill="grey" stroke="grey" stroke-width="2" points="134.5,-553.87 131,-543.87 127.5,-553.87 134.5,-553.87"/>
</g>
<!-- 12 -->
<g id="node13" class="node">
<title>12</title>
<path fill="none" stroke="#56c9d8" stroke-width="2" d="M732.12,-612C732.12,-612 677.88,-612 677.88,-612 671.88,-612 665.88,-606 665.88,-600 665.88,-600 665.88,-588 665.88,-588 665.88,-582 671.88,-576 677.88,-576 677.88,-576 732.12,-576 732.12,-576 738.12,-576 744.12,-582 744.12,-588 744.12,-588 744.12,-600 744.12,-600 744.12,-606 738.12,-612 732.12,-612"/>
<text xml:space="preserve" text-anchor="middle" x="705" y="-590.88" font-family="sans" font-size="10.00">bowtie_build</text>
</g>
<!-- 1&#45;&gt;12 -->
<g id="edge29" class="edge">
<title>1&#45;&gt;12</title>
<path fill="none" stroke="grey" stroke-width="2" d="M201.1,-656.45C317.56,-642.25 548.38,-614.1 652.22,-601.44"/>
<polygon fill="grey" stroke="grey" stroke-width="2" points="652.61,-604.92 662.11,-600.23 651.76,-597.97 652.61,-604.92"/>
</g>
<!-- 2&#45;&gt;0 -->
<g id="edge1" class="edge">
<title>2&#45;&gt;0</title>
<path fill="none" stroke="grey" stroke-width="2" d="M109.43,-503.26C81.96,-478.53 38,-430.87 38,-379 38,-379 38,-379 38,-161 38,-114.96 52.39,-97.07 91,-72 157.52,-28.81 399.58,-20.79 496.99,-19.32"/>
<polygon fill="grey" stroke="grey" stroke-width="2" points="497.03,-22.82 506.98,-19.19 496.93,-15.82 497.03,-22.82"/>
</g>
<!-- 16 -->
<g id="node17" class="node">
<title>16</title>
<path fill="none" stroke="#569ad8" stroke-width="2" d="M184.75,-468C184.75,-468 125.25,-468 125.25,-468 119.25,-468 113.25,-462 113.25,-456 113.25,-456 113.25,-444 113.25,-444 113.25,-438 119.25,-432 125.25,-432 125.25,-432 184.75,-432 184.75,-432 190.75,-432 196.75,-438 196.75,-444 196.75,-444 196.75,-456 196.75,-456 196.75,-462 190.75,-468 184.75,-468"/>
<text xml:space="preserve" text-anchor="middle" x="155" y="-446.88" font-family="sans" font-size="10.00">featurecounts</text>
</g>
<!-- 2&#45;&gt;16 -->
<g id="edge37" class="edge">
<title>2&#45;&gt;16</title>
<path fill="none" stroke="grey" stroke-width="2" d="M137.06,-503.34C139.37,-496.59 142.08,-488.69 144.68,-481.11"/>
<polygon fill="grey" stroke="grey" stroke-width="2" points="147.95,-482.36 147.88,-471.77 141.33,-480.09 147.95,-482.36"/>
</g>
<!-- 3 -->
<g id="node4" class="node">
<title>3</title>
<path fill="none" stroke="#56d87b" stroke-width="2" d="M559.5,-180C559.5,-180 516.5,-180 516.5,-180 510.5,-180 504.5,-174 504.5,-168 504.5,-168 504.5,-156 504.5,-156 504.5,-150 510.5,-144 516.5,-144 516.5,-144 559.5,-144 559.5,-144 565.5,-144 571.5,-150 571.5,-156 571.5,-156 571.5,-168 571.5,-168 571.5,-174 565.5,-180 559.5,-180"/>
<text xml:space="preserve" text-anchor="middle" x="538" y="-158.88" font-family="sans" font-size="10.00">fastqc_pre</text>
</g>
<!-- 3&#45;&gt;0 -->
<g id="edge13" class="edge">
<title>3&#45;&gt;0</title>
<path fill="none" stroke="grey" stroke-width="2" d="M538,-143.02C538,-119.54 538,-78.11 538,-49.64"/>
<polygon fill="grey" stroke="grey" stroke-width="2" points="541.5,-49.87 538,-39.87 534.5,-49.87 541.5,-49.87"/>
</g>
<!-- 15 -->
<g id="node16" class="node">
<title>15</title>
<path fill="none" stroke="#d8b456" stroke-width="2" d="M614,-108C614,-108 584,-108 584,-108 578,-108 572,-102 572,-96 572,-96 572,-84 572,-84 572,-78 578,-72 584,-72 584,-72 614,-72 614,-72 620,-72 626,-78 626,-84 626,-84 626,-96 626,-96 626,-102 620,-108 614,-108"/>
<text xml:space="preserve" text-anchor="middle" x="599" y="-86.88" font-family="sans" font-size="10.00">multiqc</text>
</g>
<!-- 3&#45;&gt;15 -->
<g id="edge32" class="edge">
<title>3&#45;&gt;15</title>
<path fill="none" stroke="grey" stroke-width="2" d="M553.39,-143.34C559.92,-135.85 567.67,-126.95 574.92,-118.63"/>
<polygon fill="grey" stroke="grey" stroke-width="2" points="577.48,-121.02 581.41,-111.18 572.2,-116.42 577.48,-121.02"/>
</g>
<!-- 4 -->
<g id="node5" class="node">
<title>4</title>
<path fill="none" stroke="#bed856" stroke-width="2" d="M851.38,-684C851.38,-684 816.62,-684 816.62,-684 810.62,-684 804.62,-678 804.62,-672 804.62,-672 804.62,-660 804.62,-660 804.62,-654 810.62,-648 816.62,-648 816.62,-648 851.38,-648 851.38,-648 857.38,-648 863.38,-654 863.38,-660 863.38,-660 863.38,-672 863.38,-672 863.38,-678 857.38,-684 851.38,-684"/>
<text xml:space="preserve" text-anchor="middle" x="834" y="-662.88" font-family="sans" font-size="10.00">cutadapt</text>
</g>
<!-- 4&#45;&gt;0 -->
<g id="edge7" class="edge">
<title>4&#45;&gt;0</title>
<path fill="none" stroke="grey" stroke-width="2" d="M854.41,-647.02C880.41,-622.02 922,-574.05 922,-523 922,-523 922,-523 922,-161 922,-109.84 893.24,-97.7 849,-72 803.64,-45.64 652,-29.05 578.56,-22.37"/>
<polygon fill="grey" stroke="grey" stroke-width="2" points="579.08,-18.91 568.81,-21.51 578.46,-25.88 579.08,-18.91"/>
</g>
<!-- 5 -->
<g id="node6" class="node">
<title>5</title>
<path fill="none" stroke="#56b1d8" stroke-width="2" d="M718,-180C718,-180 678,-180 678,-180 672,-180 666,-174 666,-168 666,-168 666,-156 666,-156 666,-150 672,-144 678,-144 678,-144 718,-144 718,-144 724,-144 730,-150 730,-156 730,-156 730,-168 730,-168 730,-174 724,-180 718,-180"/>
<text xml:space="preserve" text-anchor="middle" x="698" y="-158.88" font-family="sans" font-size="10.00">fastqc_aft</text>
</g>
<!-- 4&#45;&gt;5 -->
<g id="edge21" class="edge">
<title>4&#45;&gt;5</title>
<path fill="none" stroke="grey" stroke-width="2" d="M820.55,-647.26C802.31,-621.39 772,-571.15 772,-523 772,-523 772,-523 772,-305 772,-261.32 744.12,-217.76 722.58,-190.63"/>
<polygon fill="grey" stroke="grey" stroke-width="2" points="725.41,-188.56 716.35,-183.07 720.01,-193.01 725.41,-188.56"/>
</g>
<!-- 6 -->
<g id="node7" class="node">
<title>6</title>
<path fill="none" stroke="#56d863" stroke-width="2" d="M1062.38,-612C1062.38,-612 961.62,-612 961.62,-612 955.62,-612 949.62,-606 949.62,-600 949.62,-600 949.62,-588 949.62,-588 949.62,-582 955.62,-576 961.62,-576 961.62,-576 1062.38,-576 1062.38,-576 1068.38,-576 1074.38,-582 1074.38,-588 1074.38,-588 1074.38,-600 1074.38,-600 1074.38,-606 1068.38,-612 1062.38,-612"/>
<text xml:space="preserve" text-anchor="middle" x="1012" y="-590.88" font-family="sans" font-size="10.00">deplete_contaminants</text>
</g>
<!-- 4&#45;&gt;6 -->
<g id="edge23" class="edge">
<title>4&#45;&gt;6</title>
<path fill="none" stroke="grey" stroke-width="2" d="M864.2,-653.13C888.78,-643.46 924.2,-629.53 954.2,-617.73"/>
<polygon fill="grey" stroke="grey" stroke-width="2" points="955.41,-621.02 963.43,-614.1 952.85,-614.5 955.41,-621.02"/>
</g>
<!-- 4&#45;&gt;15 -->
<g id="edge36" class="edge">
<title>4&#45;&gt;15</title>
<path fill="none" stroke="grey" stroke-width="2" d="M803.82,-664.85C764.19,-662.93 695.17,-653.38 657,-612 629.58,-582.27 638,-563.45 638,-523 638,-523 638,-523 638,-233 638,-193.09 623.5,-149.06 612.18,-120.77"/>
<polygon fill="grey" stroke="grey" stroke-width="2" points="615.5,-119.63 608.43,-111.74 609.04,-122.32 615.5,-119.63"/>
</g>
<!-- 5&#45;&gt;0 -->
<g id="edge17" class="edge">
<title>5&#45;&gt;0</title>
<path fill="none" stroke="grey" stroke-width="2" d="M688.62,-143.13C677.76,-123.74 658.33,-92.77 635,-72 618.07,-56.93 596.11,-44.48 577.37,-35.44"/>
<polygon fill="grey" stroke="grey" stroke-width="2" points="578.9,-32.29 568.35,-31.28 575.96,-38.65 578.9,-32.29"/>
</g>
<!-- 5&#45;&gt;15 -->
<g id="edge34" class="edge">
<title>5&#45;&gt;15</title>
<path fill="none" stroke="grey" stroke-width="2" d="M672.76,-143.15C661.24,-135.01 647.39,-125.22 634.82,-116.33"/>
<polygon fill="grey" stroke="grey" stroke-width="2" points="636.85,-113.48 626.66,-110.56 632.81,-119.19 636.85,-113.48"/>
</g>
<!-- 6&#45;&gt;0 -->
<g id="edge12" class="edge">
<title>6&#45;&gt;0</title>
<path fill="none" stroke="grey" stroke-width="2" d="M1000.97,-575.38C985.71,-549.26 960,-498.26 960,-451 960,-451 960,-451 960,-161 960,-120.03 966.8,-99.01 936,-72 883.47,-25.94 669.17,-19.51 578.65,-18.9"/>
<polygon fill="grey" stroke="grey" stroke-width="2" points="578.77,-15.4 568.76,-18.86 578.74,-22.4 578.77,-15.4"/>
</g>
<!-- 9 -->
<g id="node10" class="node">
<title>9</title>
<path fill="none" stroke="#56d892" stroke-width="2" d="M1076.38,-180C1076.38,-180 999.62,-180 999.62,-180 993.62,-180 987.62,-174 987.62,-168 987.62,-168 987.62,-156 987.62,-156 987.62,-150 993.62,-144 999.62,-144 999.62,-144 1076.38,-144 1076.38,-144 1082.38,-144 1088.38,-150 1088.38,-156 1088.38,-156 1088.38,-168 1088.38,-168 1088.38,-174 1082.38,-180 1076.38,-180"/>
<text xml:space="preserve" text-anchor="middle" x="1038" y="-158.88" font-family="sans" font-size="10.00">flagstat_depleted</text>
</g>
<!-- 6&#45;&gt;9 -->
<g id="edge25" class="edge">
<title>6&#45;&gt;9</title>
<path fill="none" stroke="grey" stroke-width="2" d="M1014.69,-575.12C1018.5,-548.24 1025,-495.81 1025,-451 1025,-451 1025,-451 1025,-305 1025,-266.49 1029.8,-222.36 1033.57,-193.65"/>
<polygon fill="grey" stroke="grey" stroke-width="2" points="1037.01,-194.27 1034.9,-183.88 1030.08,-193.32 1037.01,-194.27"/>
</g>
<!-- 11 -->
<g id="node12" class="node">
<title>11</title>
<path fill="none" stroke="#5682d8" stroke-width="2" d="M866.12,-540C866.12,-540 811.88,-540 811.88,-540 805.88,-540 799.88,-534 799.88,-528 799.88,-528 799.88,-516 799.88,-516 799.88,-510 805.88,-504 811.88,-504 811.88,-504 866.12,-504 866.12,-504 872.12,-504 878.12,-510 878.12,-516 878.12,-516 878.12,-528 878.12,-528 878.12,-534 872.12,-540 866.12,-540"/>
<text xml:space="preserve" text-anchor="middle" x="839" y="-518.88" font-family="sans" font-size="10.00">bowtie_align</text>
</g>
<!-- 6&#45;&gt;11 -->
<g id="edge27" class="edge">
<title>6&#45;&gt;11</title>
<path fill="none" stroke="grey" stroke-width="2" d="M967.9,-575.15C944.43,-565.66 915.44,-553.93 890.89,-544"/>
<polygon fill="grey" stroke="grey" stroke-width="2" points="892.27,-540.78 881.69,-540.27 889.64,-547.27 892.27,-540.78"/>
</g>
<!-- 7 -->
<g id="node8" class="node">
<title>7</title>
<path fill="none" stroke="#566bd8" stroke-width="2" d="M1069.5,-684C1069.5,-684 954.5,-684 954.5,-684 948.5,-684 942.5,-678 942.5,-672 942.5,-672 942.5,-660 942.5,-660 942.5,-654 948.5,-648 954.5,-648 954.5,-648 1069.5,-648 1069.5,-648 1075.5,-648 1081.5,-654 1081.5,-660 1081.5,-660 1081.5,-672 1081.5,-672 1081.5,-678 1075.5,-684 1069.5,-684"/>
<text xml:space="preserve" text-anchor="middle" x="1012" y="-662.88" font-family="sans" font-size="10.00">build_contaminant_index</text>
</g>
<!-- 7&#45;&gt;6 -->
<g id="edge22" class="edge">
<title>7&#45;&gt;6</title>
<path fill="none" stroke="grey" stroke-width="2" d="M1012,-647.34C1012,-640.75 1012,-633.08 1012,-625.67"/>
<polygon fill="grey" stroke="grey" stroke-width="2" points="1015.5,-625.93 1012,-615.93 1008.5,-625.93 1015.5,-625.93"/>
</g>
<!-- 8 -->
<g id="node9" class="node">
<title>8</title>
<path fill="none" stroke="#56d8d0" stroke-width="2" d="M1067.62,-756C1067.62,-756 956.38,-756 956.38,-756 950.38,-756 944.38,-750 944.38,-744 944.38,-744 944.38,-732 944.38,-732 944.38,-726 950.38,-720 956.38,-720 956.38,-720 1067.62,-720 1067.62,-720 1073.62,-720 1079.62,-726 1079.62,-732 1079.62,-732 1079.62,-744 1079.62,-744 1079.62,-750 1073.62,-756 1067.62,-756"/>
<text xml:space="preserve" text-anchor="middle" x="1012" y="-734.88" font-family="sans" font-size="10.00">download_contaminants</text>
</g>
<!-- 8&#45;&gt;7 -->
<g id="edge24" class="edge">
<title>8&#45;&gt;7</title>
<path fill="none" stroke="grey" stroke-width="2" d="M1012,-719.34C1012,-712.75 1012,-705.08 1012,-697.67"/>
<polygon fill="grey" stroke="grey" stroke-width="2" points="1015.5,-697.93 1012,-687.93 1008.5,-697.93 1015.5,-697.93"/>
</g>
<!-- 9&#45;&gt;0 -->
<g id="edge14" class="edge">
<title>9&#45;&gt;0</title>
<path fill="none" stroke="grey" stroke-width="2" d="M1030.61,-143.19C1020.93,-122.31 1001.85,-88.47 974,-72 907.62,-32.73 673.88,-22.43 578.74,-19.83"/>
<polygon fill="grey" stroke="grey" stroke-width="2" points="578.86,-16.34 568.77,-19.58 578.68,-23.33 578.86,-16.34"/>
</g>
<!-- 10 -->
<g id="node11" class="node">
<title>10</title>
<path fill="none" stroke="#d88556" stroke-width="2" d="M1156.38,-108C1156.38,-108 1037.62,-108 1037.62,-108 1031.62,-108 1025.62,-102 1025.62,-96 1025.62,-96 1025.62,-84 1025.62,-84 1025.62,-78 1031.62,-72 1037.62,-72 1037.62,-72 1156.38,-72 1156.38,-72 1162.38,-72 1168.38,-78 1168.38,-84 1168.38,-84 1168.38,-96 1168.38,-96 1168.38,-102 1162.38,-108 1156.38,-108"/>
<text xml:space="preserve" text-anchor="middle" x="1097" y="-86.88" font-family="sans" font-size="10.00">merge_flagstats_depleted</text>
</g>
<!-- 9&#45;&gt;10 -->
<g id="edge26" class="edge">
<title>9&#45;&gt;10</title>
<path fill="none" stroke="grey" stroke-width="2" d="M1052.89,-143.34C1059.2,-135.85 1066.7,-126.95 1073.71,-118.63"/>
<polygon fill="grey" stroke="grey" stroke-width="2" points="1076.19,-121.12 1079.96,-111.22 1070.84,-116.61 1076.19,-121.12"/>
</g>
<!-- 10&#45;&gt;0 -->
<g id="edge3" class="edge">
<title>10&#45;&gt;0</title>
<path fill="none" stroke="grey" stroke-width="2" d="M1024.74,-74.11C1020.43,-73.36 1016.16,-72.65 1012,-72 852.5,-47.18 661.07,-29.43 578.82,-22.37"/>
<polygon fill="grey" stroke="grey" stroke-width="2" points="579.17,-18.89 568.91,-21.53 578.58,-25.86 579.17,-18.89"/>
</g>
<!-- 11&#45;&gt;0 -->
<g id="edge19" class="edge">
<title>11&#45;&gt;0</title>
<path fill="none" stroke="grey" stroke-width="2" d="M848.54,-503.19C861.75,-476.84 884,-425.55 884,-379 884,-379 884,-379 884,-161 884,-108.7 852.23,-98.26 807,-72 734.18,-29.72 633.54,-20.56 578.31,-18.94"/>
<polygon fill="grey" stroke="grey" stroke-width="2" points="578.71,-15.45 568.64,-18.74 578.56,-22.45 578.71,-15.45"/>
</g>
<!-- 13 -->
<g id="node14" class="node">
<title>13</title>
<path fill="none" stroke="#78d856" stroke-width="2" d="M843.75,-180C843.75,-180 760.25,-180 760.25,-180 754.25,-180 748.25,-174 748.25,-168 748.25,-168 748.25,-156 748.25,-156 748.25,-150 754.25,-144 760.25,-144 760.25,-144 843.75,-144 843.75,-144 849.75,-144 855.75,-150 855.75,-156 855.75,-156 855.75,-168 855.75,-168 855.75,-174 849.75,-180 843.75,-180"/>
<text xml:space="preserve" text-anchor="middle" x="802" y="-158.88" font-family="sans" font-size="10.00">flagstat_alignment</text>
</g>
<!-- 11&#45;&gt;13 -->
<g id="edge30" class="edge">
<title>11&#45;&gt;13</title>
<path fill="none" stroke="grey" stroke-width="2" d="M835.89,-503.13C831.5,-476.28 824,-423.87 824,-379 824,-379 824,-379 824,-305 824,-266.02 815.8,-221.72 809.42,-193.12"/>
<polygon fill="grey" stroke="grey" stroke-width="2" points="812.91,-192.7 807.24,-183.74 806.09,-194.28 812.91,-192.7"/>
</g>
<!-- 11&#45;&gt;16 -->
<g id="edge38" class="edge">
<title>11&#45;&gt;16</title>
<path fill="none" stroke="grey" stroke-width="2" d="M799.02,-516.91C682.6,-504.99 343.64,-470.31 210.05,-456.63"/>
<polygon fill="grey" stroke="grey" stroke-width="2" points="210.72,-453.18 200.41,-455.65 210,-460.15 210.72,-453.18"/>
</g>
<!-- 12&#45;&gt;11 -->
<g id="edge28" class="edge">
<title>12&#45;&gt;11</title>
<path fill="none" stroke="grey" stroke-width="2" d="M739.16,-575.15C755.7,-566.52 775.78,-556.02 793.59,-546.72"/>
<polygon fill="grey" stroke="grey" stroke-width="2" points="794.98,-549.95 802.22,-542.21 791.73,-543.74 794.98,-549.95"/>
</g>
<!-- 13&#45;&gt;0 -->
<g id="edge10" class="edge">
<title>13&#45;&gt;0</title>
<path fill="none" stroke="grey" stroke-width="2" d="M803.92,-143.02C805,-122.94 803.36,-90.78 785,-72 756.72,-43.07 640.95,-28.32 578.46,-22.33"/>
<polygon fill="grey" stroke="grey" stroke-width="2" points="578.91,-18.85 568.63,-21.42 578.27,-25.82 578.91,-18.85"/>
</g>
<!-- 14 -->
<g id="node15" class="node">
<title>14</title>
<path fill="none" stroke="#56d8a2" stroke-width="2" d="M764.38,-108C764.38,-108 693.62,-108 693.62,-108 687.62,-108 681.62,-102 681.62,-96 681.62,-96 681.62,-84 681.62,-84 681.62,-78 687.62,-72 693.62,-72 693.62,-72 764.38,-72 764.38,-72 770.38,-72 776.38,-78 776.38,-84 776.38,-84 776.38,-96 776.38,-96 776.38,-102 770.38,-108 764.38,-108"/>
<text xml:space="preserve" text-anchor="middle" x="729" y="-86.88" font-family="sans" font-size="10.00">merge_flagstats</text>
</g>
<!-- 13&#45;&gt;14 -->
<g id="edge31" class="edge">
<title>13&#45;&gt;14</title>
<path fill="none" stroke="grey" stroke-width="2" d="M783.58,-143.34C775.51,-135.6 765.87,-126.36 756.96,-117.81"/>
<polygon fill="grey" stroke="grey" stroke-width="2" points="759.49,-115.39 749.85,-111 754.65,-120.44 759.49,-115.39"/>
</g>
<!-- 13&#45;&gt;15 -->
<g id="edge33" class="edge">
<title>13&#45;&gt;15</title>
<path fill="none" stroke="grey" stroke-width="2" d="M749.99,-143.06C715.35,-131.12 670.53,-115.67 638.75,-104.71"/>
<polygon fill="grey" stroke="grey" stroke-width="2" points="640.29,-101.53 629.69,-101.58 638.01,-108.15 640.29,-101.53"/>
</g>
<!-- 14&#45;&gt;0 -->
<g id="edge15" class="edge">
<title>14&#45;&gt;0</title>
<path fill="none" stroke="grey" stroke-width="2" d="M680.8,-71.34C648.99,-59.68 607.81,-44.58 577.85,-33.6"/>
<polygon fill="grey" stroke="grey" stroke-width="2" points="579.19,-30.37 568.6,-30.21 576.78,-36.94 579.19,-30.37"/>
</g>
<!-- 15&#45;&gt;0 -->
<g id="edge5" class="edge">
<title>15&#45;&gt;0</title>
<path fill="none" stroke="grey" stroke-width="2" d="M583.61,-71.34C577.08,-63.85 569.33,-54.95 562.08,-46.63"/>
<polygon fill="grey" stroke="grey" stroke-width="2" points="564.8,-44.42 555.59,-39.18 559.52,-49.02 564.8,-44.42"/>
</g>
<!-- 16&#45;&gt;0 -->
<g id="edge18" class="edge">
<title>16&#45;&gt;0</title>
<path fill="none" stroke="grey" stroke-width="2" d="M137.07,-431.04C113.77,-405.7 76,-356.93 76,-307 76,-307 76,-307 76,-161 76,-110.12 103.67,-96.96 148,-72 207.2,-38.66 409.76,-25.14 497.23,-20.76"/>
<polygon fill="grey" stroke="grey" stroke-width="2" points="497.4,-24.26 507.22,-20.28 497.07,-17.26 497.4,-24.26"/>
</g>
<!-- 16&#45;&gt;15 -->
<g id="edge35" class="edge">
<title>16&#45;&gt;15</title>
<path fill="none" stroke="grey" stroke-width="2" d="M197.67,-444.61C309.05,-431.97 600,-390.93 600,-307 600,-307 600,-307 600,-233 600,-194.65 599.63,-150.48 599.34,-121.72"/>
<polygon fill="grey" stroke="grey" stroke-width="2" points="602.84,-121.92 599.24,-111.96 595.84,-122 602.84,-121.92"/>
</g>
<!-- 17 -->
<g id="node18" class="node">
<title>17</title>
<path fill="none" stroke="#d89c56" stroke-width="2" d="M227.5,-396C227.5,-396 166.5,-396 166.5,-396 160.5,-396 154.5,-390 154.5,-384 154.5,-384 154.5,-372 154.5,-372 154.5,-366 160.5,-360 166.5,-360 166.5,-360 227.5,-360 227.5,-360 233.5,-360 239.5,-366 239.5,-372 239.5,-372 239.5,-384 239.5,-384 239.5,-390 233.5,-396 227.5,-396"/>
<text xml:space="preserve" text-anchor="middle" x="197" y="-374.88" font-family="sans" font-size="10.00">deseq2_mirna</text>
</g>
<!-- 16&#45;&gt;17 -->
<g id="edge39" class="edge">
<title>16&#45;&gt;17</title>
<path fill="none" stroke="grey" stroke-width="2" d="M165.6,-431.34C169.84,-424.26 174.85,-415.92 179.6,-408"/>
<polygon fill="grey" stroke="grey" stroke-width="2" points="182.56,-409.87 184.7,-399.5 176.56,-406.27 182.56,-409.87"/>
</g>
<!-- 18 -->
<g id="node19" class="node">
<title>18</title>
<path fill="none" stroke="#d86e56" stroke-width="2" d="M239.5,-252C239.5,-252 154.5,-252 154.5,-252 148.5,-252 142.5,-246 142.5,-240 142.5,-240 142.5,-228 142.5,-228 142.5,-222 148.5,-216 154.5,-216 154.5,-216 239.5,-216 239.5,-216 245.5,-216 251.5,-222 251.5,-228 251.5,-228 251.5,-240 251.5,-240 251.5,-246 245.5,-252 239.5,-252"/>
<text xml:space="preserve" text-anchor="middle" x="197" y="-230.88" font-family="sans" font-size="10.00">plot_deseq2_mirna</text>
</g>
<!-- 16&#45;&gt;18 -->
<g id="edge41" class="edge">
<title>16&#45;&gt;18</title>
<path fill="none" stroke="grey" stroke-width="2" d="M150.13,-431.13C145.93,-413.05 141.22,-384.38 146,-360 152.72,-325.76 168.86,-289.08 181.21,-264.37"/>
<polygon fill="grey" stroke="grey" stroke-width="2" points="184.24,-266.13 185.69,-255.63 178.01,-262.93 184.24,-266.13"/>
</g>
<!-- 17&#45;&gt;0 -->
<g id="edge4" class="edge">
<title>17&#45;&gt;0</title>
<path fill="none" stroke="grey" stroke-width="2" d="M184.76,-359.4C169.37,-336.1 143.78,-293.14 134,-252 119.52,-191.08 157.48,-81.61 168,-72 215.51,-28.57 411.58,-20.62 497.43,-19.25"/>
<polygon fill="grey" stroke="grey" stroke-width="2" points="497.25,-22.75 507.2,-19.12 497.15,-15.75 497.25,-22.75"/>
</g>
<!-- 17&#45;&gt;18 -->
<g id="edge40" class="edge">
<title>17&#45;&gt;18</title>
<path fill="none" stroke="grey" stroke-width="2" d="M197,-359.02C197,-335.54 197,-294.11 197,-265.64"/>
<polygon fill="grey" stroke="grey" stroke-width="2" points="200.5,-265.87 197,-255.87 193.5,-265.87 200.5,-265.87"/>
</g>
<!-- 19 -->
<g id="node20" class="node">
<title>19</title>
<path fill="none" stroke="#8fd856" stroke-width="2" d="M418.25,-324C418.25,-324 319.75,-324 319.75,-324 313.75,-324 307.75,-318 307.75,-312 307.75,-312 307.75,-300 307.75,-300 307.75,-294 313.75,-288 319.75,-288 319.75,-288 418.25,-288 418.25,-288 424.25,-288 430.25,-294 430.25,-300 430.25,-300 430.25,-312 430.25,-312 430.25,-318 424.25,-324 418.25,-324"/>
<text xml:space="preserve" text-anchor="middle" x="369" y="-302.88" font-family="sans" font-size="10.00">extract_mirna_names</text>
</g>
<!-- 17&#45;&gt;19 -->
<g id="edge42" class="edge">
<title>17&#45;&gt;19</title>
<path fill="none" stroke="grey" stroke-width="2" d="M240.4,-359.34C262.44,-350.37 289.46,-339.37 313.04,-329.77"/>
<polygon fill="grey" stroke="grey" stroke-width="2" points="314.27,-333.05 322.21,-326.04 311.63,-326.57 314.27,-333.05"/>
</g>
<!-- 22 -->
<g id="node23" class="node">
<title>22</title>
<path fill="none" stroke="#56d8b9" stroke-width="2" d="M315.38,-108C315.38,-108 208.62,-108 208.62,-108 202.62,-108 196.62,-102 196.62,-96 196.62,-96 196.62,-84 196.62,-84 196.62,-78 202.62,-72 208.62,-72 208.62,-72 315.38,-72 315.38,-72 321.38,-72 327.38,-78 327.38,-84 327.38,-84 327.38,-96 327.38,-96 327.38,-102 321.38,-108 315.38,-108"/>
<text xml:space="preserve" text-anchor="middle" x="262" y="-86.88" font-family="sans" font-size="10.00">summary_report_mirna</text>
</g>
<!-- 17&#45;&gt;22 -->
<g id="edge46" class="edge">
<title>17&#45;&gt;22</title>
<path fill="none" stroke="grey" stroke-width="2" d="M209.66,-359.02C225.28,-335.65 250.99,-292.97 261,-252 271.86,-207.57 269.24,-154.16 265.94,-121.41"/>
<polygon fill="grey" stroke="grey" stroke-width="2" points="269.45,-121.27 264.86,-111.73 262.5,-122.05 269.45,-121.27"/>
</g>
<!-- 18&#45;&gt;0 -->
<g id="edge2" class="edge">
<title>18&#45;&gt;0</title>
<path fill="none" stroke="grey" stroke-width="2" d="M188.92,-215.23C175.42,-182.57 153.04,-112.65 188,-72 227.48,-26.1 413.51,-19.46 497.13,-18.83"/>
<polygon fill="grey" stroke="grey" stroke-width="2" points="497.08,-22.33 507.07,-18.79 497.05,-15.33 497.08,-22.33"/>
</g>
<!-- 18&#45;&gt;22 -->
<g id="edge47" class="edge">
<title>18&#45;&gt;22</title>
<path fill="none" stroke="grey" stroke-width="2" d="M205.23,-215.02C216.12,-191.22 235.46,-148.97 248.51,-120.48"/>
<polygon fill="grey" stroke="grey" stroke-width="2" points="251.59,-122.14 252.57,-111.59 245.23,-119.23 251.59,-122.14"/>
</g>
<!-- 19&#45;&gt;0 -->
<g id="edge9" class="edge">
<title>19&#45;&gt;0</title>
<path fill="none" stroke="grey" stroke-width="2" d="M354.84,-287.25C332.28,-256.66 293.25,-192.63 319,-144 355.08,-75.88 445.13,-42.33 497.84,-28.02"/>
<polygon fill="grey" stroke="grey" stroke-width="2" points="498.64,-31.43 507.45,-25.55 496.89,-24.65 498.64,-31.43"/>
</g>
<!-- 20 -->
<g id="node21" class="node">
<title>20</title>
<path fill="none" stroke="#d8c356" stroke-width="2" d="M503,-252C503,-252 409,-252 409,-252 403,-252 397,-246 397,-240 397,-240 397,-228 397,-228 397,-222 403,-216 409,-216 409,-216 503,-216 503,-216 509,-216 515,-222 515,-228 515,-228 515,-240 515,-240 515,-246 509,-252 503,-252"/>
<text xml:space="preserve" text-anchor="middle" x="456" y="-230.88" font-family="sans" font-size="10.00">cache_mirna_targets</text>
</g>
<!-- 19&#45;&gt;20 -->
<g id="edge43" class="edge">
<title>19&#45;&gt;20</title>
<path fill="none" stroke="grey" stroke-width="2" d="M390.95,-287.34C400.87,-279.36 412.79,-269.77 423.7,-260.99"/>
<polygon fill="grey" stroke="grey" stroke-width="2" points="425.8,-263.8 431.39,-254.8 421.41,-258.34 425.8,-263.8"/>
</g>
<!-- 21 -->
<g id="node22" class="node">
<title>21</title>
<path fill="none" stroke="#61d856" stroke-width="2" d="M435.75,-180C435.75,-180 340.25,-180 340.25,-180 334.25,-180 328.25,-174 328.25,-168 328.25,-168 328.25,-156 328.25,-156 328.25,-150 334.25,-144 340.25,-144 340.25,-144 435.75,-144 435.75,-144 441.75,-144 447.75,-150 447.75,-156 447.75,-156 447.75,-168 447.75,-168 447.75,-174 441.75,-180 435.75,-180"/>
<text xml:space="preserve" text-anchor="middle" x="388" y="-158.88" font-family="sans" font-size="10.00">enrich_mirna_targets</text>
</g>
<!-- 19&#45;&gt;21 -->
<g id="edge44" class="edge">
<title>19&#45;&gt;21</title>
<path fill="none" stroke="grey" stroke-width="2" d="M371.41,-287.02C374.55,-263.54 380.09,-222.11 383.9,-193.64"/>
<polygon fill="grey" stroke="grey" stroke-width="2" points="387.35,-194.21 385.21,-183.84 380.42,-193.29 387.35,-194.21"/>
</g>
<!-- 20&#45;&gt;0 -->
<g id="edge6" class="edge">
<title>20&#45;&gt;0</title>
<path fill="none" stroke="grey" stroke-width="2" d="M462.85,-215.12C476.93,-178.38 509.24,-94.05 526.55,-48.87"/>
<polygon fill="grey" stroke="grey" stroke-width="2" points="529.72,-50.39 530.03,-39.8 523.18,-47.89 529.72,-50.39"/>
</g>
<!-- 20&#45;&gt;21 -->
<g id="edge45" class="edge">
<title>20&#45;&gt;21</title>
<path fill="none" stroke="grey" stroke-width="2" d="M438.84,-215.34C431.41,-207.69 422.54,-198.56 414.31,-190.08"/>
<polygon fill="grey" stroke="grey" stroke-width="2" points="416.98,-187.81 407.5,-183.07 411.96,-192.68 416.98,-187.81"/>
</g>
<!-- 21&#45;&gt;0 -->
<g id="edge11" class="edge">
<title>21&#45;&gt;0</title>
<path fill="none" stroke="grey" stroke-width="2" d="M400.65,-143.07C414.47,-124.18 437.88,-94.16 462,-72 473.45,-61.48 487.09,-51.34 499.64,-42.81"/>
<polygon fill="grey" stroke="grey" stroke-width="2" points="501.37,-45.86 507.77,-37.42 497.5,-40.02 501.37,-45.86"/>
</g>
<!-- 21&#45;&gt;22 -->
<g id="edge48" class="edge">
<title>21&#45;&gt;22</title>
<path fill="none" stroke="grey" stroke-width="2" d="M355.88,-143.15C340.48,-134.6 321.8,-124.22 305.18,-114.99"/>
<polygon fill="grey" stroke="grey" stroke-width="2" points="307.15,-112.08 296.71,-110.28 303.75,-118.2 307.15,-112.08"/>
</g>
<!-- 22&#45;&gt;0 -->
<g id="edge16" class="edge">
<title>22&#45;&gt;0</title>
<path fill="none" stroke="grey" stroke-width="2" d="M328.11,-72.23C380.83,-58.86 452.97,-40.56 497.48,-29.28"/>
<polygon fill="grey" stroke="grey" stroke-width="2" points="498.31,-32.68 507.14,-26.83 496.59,-25.89 498.31,-32.68"/>
</g>
</g>
</svg>
