<?xml version="1.0" encoding="UTF-8" standalone="no"?>
<!DOCTYPE svg PUBLIC "-//W3C//DTD SVG 1.1//EN"
 "http://www.w3.org/Graphics/SVG/1.1/DTD/svg11.dtd">
<!-- Generated by graphviz version 12.2.1 (20250203.1708)
 -->
<!-- Title: snakemake_dag Pages: 1 -->
<svg width="1160pt" height="764pt"
 viewBox="0.00 0.00 1160.38 764.00" xmlns="http://www.w3.org/2000/svg" xmlns:xlink="http://www.w3.org/1999/xlink">
<g id="graph0" class="graph" transform="scale(1 1) rotate(0) translate(4 760)">
<title>snakemake_dag</title>
<polygon fill="white" stroke="none" points="-4,4 -4,-760 1156.38,-760 1156.38,4 -4,4"/>
<!-- 0 -->
<g id="node1" class="node">
<title>0</title>
<path fill="none" stroke="#5682d8" stroke-width="2" d="M537,-36C537,-36 507,-36 507,-36 501,-36 495,-30 495,-24 495,-24 495,-12 495,-12 495,-6 501,0 507,0 507,0 537,0 537,0 543,0 549,-6 549,-12 549,-12 549,-24 549,-24 549,-30 543,-36 537,-36"/>
<text text-anchor="middle" x="522" y="-14.88" font-family="sans" font-size="10.00">all</text>
</g>
<!-- 1 -->
<g id="node2" class="node">
<title>1</title>
<path fill="none" stroke="#bed856" stroke-width="2" d="M185.12,-684C185.12,-684 70.88,-684 70.88,-684 64.88,-684 58.88,-678 58.88,-672 58.88,-672 58.88,-660 58.88,-660 58.88,-654 64.88,-648 70.88,-648 70.88,-648 185.12,-648 185.12,-648 191.12,-648 197.12,-654 197.12,-660 197.12,-660 197.12,-672 197.12,-672 197.12,-678 191.12,-684 185.12,-684"/>
<text text-anchor="middle" x="128" y="-662.88" font-family="sans" font-size="10.00">download_mirbase_fasta</text>
</g>
<!-- 1&#45;&gt;0 -->
<g id="edge8" class="edge">
<title>1&#45;&gt;0</title>
<path fill="none" stroke="grey" stroke-width="2" d="M95.04,-647.2C57.11,-624.05 0,-579.76 0,-523 0,-523 0,-523 0,-161 0,-116.87 7.86,-97.32 44,-72 114.19,-22.83 379.18,-18.44 481.42,-18.63"/>
<polygon fill="grey" stroke="grey" stroke-width="2" points="481.13,-22.13 491.14,-18.66 481.16,-15.13 481.13,-22.13"/>
</g>
<!-- 2 -->
<g id="node3" class="node">
<title>2</title>
<path fill="none" stroke="#d88556" stroke-width="2" d="M154,-540C154,-540 102,-540 102,-540 96,-540 90,-534 90,-528 90,-528 90,-516 90,-516 90,-510 96,-504 102,-504 102,-504 154,-504 154,-504 160,-504 166,-510 166,-516 166,-516 166,-528 166,-528 166,-534 160,-540 154,-540"/>
<text text-anchor="middle" x="128" y="-518.88" font-family="sans" font-size="10.00">fasta_to_saf</text>
</g>
<!-- 1&#45;&gt;2 -->
<g id="edge20" class="edge">
<title>1&#45;&gt;2</title>
<path fill="none" stroke="grey" stroke-width="2" d="M128,-647.02C128,-623.54 128,-582.11 128,-553.64"/>
<polygon fill="grey" stroke="grey" stroke-width="2" points="131.5,-553.87 128,-543.87 124.5,-553.87 131.5,-553.87"/>
</g>
<!-- 12 -->
<g id="node13" class="node">
<title>12</title>
<path fill="none" stroke="#56d8d0" stroke-width="2" d="M716.12,-612C716.12,-612 661.88,-612 661.88,-612 655.88,-612 649.88,-606 649.88,-600 649.88,-600 649.88,-588 649.88,-588 649.88,-582 655.88,-576 661.88,-576 661.88,-576 716.12,-576 716.12,-576 722.12,-576 728.12,-582 728.12,-588 728.12,-588 728.12,-600 728.12,-600 728.12,-606 722.12,-612 716.12,-612"/>
<text text-anchor="middle" x="689" y="-590.88" font-family="sans" font-size="10.00">bowtie_build</text>
</g>
<!-- 1&#45;&gt;12 -->
<g id="edge29" class="edge">
<title>1&#45;&gt;12</title>
<path fill="none" stroke="grey" stroke-width="2" d="M197.92,-656.28C311.88,-642.06 535.13,-614.2 636.59,-601.54"/>
<polygon fill="grey" stroke="grey" stroke-width="2" points="636.71,-605.05 646.2,-600.34 635.85,-598.11 636.71,-605.05"/>
</g>
<!-- 2&#45;&gt;0 -->
<g id="edge3" class="edge">
<title>2&#45;&gt;0</title>
<path fill="none" stroke="grey" stroke-width="2" d="M107.13,-503.12C80.54,-478.22 38,-430.37 38,-379 38,-379 38,-379 38,-161 38,-116.68 46.71,-97.44 83,-72 146.72,-27.33 384.87,-20.17 481.19,-19.13"/>
<polygon fill="grey" stroke="grey" stroke-width="2" points="481.07,-22.63 491.04,-19.04 481.01,-15.63 481.07,-22.63"/>
</g>
<!-- 16 -->
<g id="node17" class="node">
<title>16</title>
<path fill="none" stroke="#d8b456" stroke-width="2" d="M181.75,-468C181.75,-468 122.25,-468 122.25,-468 116.25,-468 110.25,-462 110.25,-456 110.25,-456 110.25,-444 110.25,-444 110.25,-438 116.25,-432 122.25,-432 122.25,-432 181.75,-432 181.75,-432 187.75,-432 193.75,-438 193.75,-444 193.75,-444 193.75,-456 193.75,-456 193.75,-462 187.75,-468 181.75,-468"/>
<text text-anchor="middle" x="152" y="-446.88" font-family="sans" font-size="10.00">featurecounts</text>
</g>
<!-- 2&#45;&gt;16 -->
<g id="edge38" class="edge">
<title>2&#45;&gt;16</title>
<path fill="none" stroke="grey" stroke-width="2" d="M134.06,-503.34C136.37,-496.59 139.08,-488.69 141.68,-481.11"/>
<polygon fill="grey" stroke="grey" stroke-width="2" points="144.95,-482.36 144.88,-471.77 138.33,-480.09 144.95,-482.36"/>
</g>
<!-- 3 -->
<g id="node4" class="node">
<title>3</title>
<path fill="none" stroke="#d8c356" stroke-width="2" d="M543.5,-180C543.5,-180 500.5,-180 500.5,-180 494.5,-180 488.5,-174 488.5,-168 488.5,-168 488.5,-156 488.5,-156 488.5,-150 494.5,-144 500.5,-144 500.5,-144 543.5,-144 543.5,-144 549.5,-144 555.5,-150 555.5,-156 555.5,-156 555.5,-168 555.5,-168 555.5,-174 549.5,-180 543.5,-180"/>
<text text-anchor="middle" x="522" y="-158.88" font-family="sans" font-size="10.00">fastqc_pre</text>
</g>
<!-- 3&#45;&gt;0 -->
<g id="edge6" class="edge">
<title>3&#45;&gt;0</title>
<path fill="none" stroke="grey" stroke-width="2" d="M522,-143.02C522,-119.54 522,-78.11 522,-49.64"/>
<polygon fill="grey" stroke="grey" stroke-width="2" points="525.5,-49.87 522,-39.87 518.5,-49.87 525.5,-49.87"/>
</g>
<!-- 15 -->
<g id="node16" class="node">
<title>15</title>
<path fill="none" stroke="#8fd856" stroke-width="2" d="M598,-108C598,-108 568,-108 568,-108 562,-108 556,-102 556,-96 556,-96 556,-84 556,-84 556,-78 562,-72 568,-72 568,-72 598,-72 598,-72 604,-72 610,-78 610,-84 610,-84 610,-96 610,-96 610,-102 604,-108 598,-108"/>
<text text-anchor="middle" x="583" y="-86.88" font-family="sans" font-size="10.00">multiqc</text>
</g>
<!-- 3&#45;&gt;15 -->
<g id="edge35" class="edge">
<title>3&#45;&gt;15</title>
<path fill="none" stroke="grey" stroke-width="2" d="M537.39,-143.34C543.92,-135.85 551.67,-126.95 558.92,-118.63"/>
<polygon fill="grey" stroke="grey" stroke-width="2" points="561.48,-121.02 565.41,-111.18 556.2,-116.42 561.48,-121.02"/>
</g>
<!-- 4 -->
<g id="node5" class="node">
<title>4</title>
<path fill="none" stroke="#d86e56" stroke-width="2" d="M834.38,-684C834.38,-684 799.62,-684 799.62,-684 793.62,-684 787.62,-678 787.62,-672 787.62,-672 787.62,-660 787.62,-660 787.62,-654 793.62,-648 799.62,-648 799.62,-648 834.38,-648 834.38,-648 840.38,-648 846.38,-654 846.38,-660 846.38,-660 846.38,-672 846.38,-672 846.38,-678 840.38,-684 834.38,-684"/>
<text text-anchor="middle" x="817" y="-662.88" font-family="sans" font-size="10.00">cutadapt</text>
</g>
<!-- 4&#45;&gt;0 -->
<g id="edge2" class="edge">
<title>4&#45;&gt;0</title>
<path fill="none" stroke="grey" stroke-width="2" d="M837.64,-647.07C863.93,-622.12 906,-574.21 906,-523 906,-523 906,-523 906,-161 906,-109.84 877.24,-97.7 833,-72 787.64,-45.64 636,-29.05 562.56,-22.37"/>
<polygon fill="grey" stroke="grey" stroke-width="2" points="563.08,-18.91 552.81,-21.51 562.46,-25.88 563.08,-18.91"/>
</g>
<!-- 5 -->
<g id="node6" class="node">
<title>5</title>
<path fill="none" stroke="#56d8b9" stroke-width="2" d="M702,-180C702,-180 662,-180 662,-180 656,-180 650,-174 650,-168 650,-168 650,-156 650,-156 650,-150 656,-144 662,-144 662,-144 702,-144 702,-144 708,-144 714,-150 714,-156 714,-156 714,-168 714,-168 714,-174 708,-180 702,-180"/>
<text text-anchor="middle" x="682" y="-158.88" font-family="sans" font-size="10.00">fastqc_aft</text>
</g>
<!-- 4&#45;&gt;5 -->
<g id="edge21" class="edge">
<title>4&#45;&gt;5</title>
<path fill="none" stroke="grey" stroke-width="2" d="M803.76,-647.22C785.82,-621.32 756,-571.03 756,-523 756,-523 756,-523 756,-305 756,-261.32 728.12,-217.76 706.58,-190.63"/>
<polygon fill="grey" stroke="grey" stroke-width="2" points="709.41,-188.56 700.35,-183.07 704.01,-193.01 709.41,-188.56"/>
</g>
<!-- 6 -->
<g id="node7" class="node">
<title>6</title>
<path fill="none" stroke="#56d87b" stroke-width="2" d="M1046.38,-612C1046.38,-612 945.62,-612 945.62,-612 939.62,-612 933.62,-606 933.62,-600 933.62,-600 933.62,-588 933.62,-588 933.62,-582 939.62,-576 945.62,-576 945.62,-576 1046.38,-576 1046.38,-576 1052.38,-576 1058.38,-582 1058.38,-588 1058.38,-588 1058.38,-600 1058.38,-600 1058.38,-606 1052.38,-612 1046.38,-612"/>
<text text-anchor="middle" x="996" y="-590.88" font-family="sans" font-size="10.00">deplete_contaminants</text>
</g>
<!-- 4&#45;&gt;6 -->
<g id="edge23" class="edge">
<title>4&#45;&gt;6</title>
<path fill="none" stroke="grey" stroke-width="2" d="M847.36,-653.13C872.09,-643.46 907.7,-629.53 937.88,-617.73"/>
<polygon fill="grey" stroke="grey" stroke-width="2" points="939.14,-621 947.17,-614.09 936.59,-614.48 939.14,-621"/>
</g>
<!-- 4&#45;&gt;15 -->
<g id="edge32" class="edge">
<title>4&#45;&gt;15</title>
<path fill="none" stroke="grey" stroke-width="2" d="M786.65,-664.78C747.19,-662.76 678.83,-653.08 641,-612 613.6,-582.25 622,-563.45 622,-523 622,-523 622,-523 622,-233 622,-193.09 607.5,-149.06 596.18,-120.77"/>
<polygon fill="grey" stroke="grey" stroke-width="2" points="599.5,-119.63 592.43,-111.74 593.04,-122.32 599.5,-119.63"/>
</g>
<!-- 5&#45;&gt;0 -->
<g id="edge16" class="edge">
<title>5&#45;&gt;0</title>
<path fill="none" stroke="grey" stroke-width="2" d="M672.62,-143.13C661.76,-123.74 642.33,-92.77 619,-72 602.07,-56.93 580.11,-44.48 561.37,-35.44"/>
<polygon fill="grey" stroke="grey" stroke-width="2" points="562.9,-32.29 552.35,-31.28 559.96,-38.65 562.9,-32.29"/>
</g>
<!-- 5&#45;&gt;15 -->
<g id="edge33" class="edge">
<title>5&#45;&gt;15</title>
<path fill="none" stroke="grey" stroke-width="2" d="M656.76,-143.15C645.24,-135.01 631.39,-125.22 618.82,-116.33"/>
<polygon fill="grey" stroke="grey" stroke-width="2" points="620.85,-113.48 610.66,-110.56 616.81,-119.19 620.85,-113.48"/>
</g>
<!-- 6&#45;&gt;0 -->
<g id="edge13" class="edge">
<title>6&#45;&gt;0</title>
<path fill="none" stroke="grey" stroke-width="2" d="M984.97,-575.38C969.71,-549.26 944,-498.26 944,-451 944,-451 944,-451 944,-161 944,-120.03 950.8,-99.01 920,-72 867.47,-25.94 653.17,-19.51 562.65,-18.9"/>
<polygon fill="grey" stroke="grey" stroke-width="2" points="562.77,-15.4 552.76,-18.86 562.74,-22.4 562.77,-15.4"/>
</g>
<!-- 9 -->
<g id="node10" class="node">
<title>9</title>
<path fill="none" stroke="#56b1d8" stroke-width="2" d="M1060.38,-180C1060.38,-180 983.62,-180 983.62,-180 977.62,-180 971.62,-174 971.62,-168 971.62,-168 971.62,-156 971.62,-156 971.62,-150 977.62,-144 983.62,-144 983.62,-144 1060.38,-144 1060.38,-144 1066.38,-144 1072.38,-150 1072.38,-156 1072.38,-156 1072.38,-168 1072.38,-168 1072.38,-174 1066.38,-180 1060.38,-180"/>
<text text-anchor="middle" x="1022" y="-158.88" font-family="sans" font-size="10.00">flagstat_depleted</text>
</g>
<!-- 6&#45;&gt;9 -->
<g id="edge25" class="edge">
<title>6&#45;&gt;9</title>
<path fill="none" stroke="grey" stroke-width="2" d="M998.69,-575.12C1002.5,-548.24 1009,-495.81 1009,-451 1009,-451 1009,-451 1009,-305 1009,-266.49 1013.8,-222.36 1017.57,-193.65"/>
<polygon fill="grey" stroke="grey" stroke-width="2" points="1021.01,-194.27 1018.9,-183.88 1014.08,-193.32 1021.01,-194.27"/>
</g>
<!-- 11 -->
<g id="node12" class="node">
<title>11</title>
<path fill="none" stroke="#a7d856" stroke-width="2" d="M850.12,-540C850.12,-540 795.88,-540 795.88,-540 789.88,-540 783.88,-534 783.88,-528 783.88,-528 783.88,-516 783.88,-516 783.88,-510 789.88,-504 795.88,-504 795.88,-504 850.12,-504 850.12,-504 856.12,-504 862.12,-510 862.12,-516 862.12,-516 862.12,-528 862.12,-528 862.12,-534 856.12,-540 850.12,-540"/>
<text text-anchor="middle" x="823" y="-518.88" font-family="sans" font-size="10.00">bowtie_align</text>
</g>
<!-- 6&#45;&gt;11 -->
<g id="edge28" class="edge">
<title>6&#45;&gt;11</title>
<path fill="none" stroke="grey" stroke-width="2" d="M951.9,-575.15C928.43,-565.66 899.44,-553.93 874.89,-544"/>
<polygon fill="grey" stroke="grey" stroke-width="2" points="876.27,-540.78 865.69,-540.27 873.64,-547.27 876.27,-540.78"/>
</g>
<!-- 7 -->
<g id="node8" class="node">
<title>7</title>
<path fill="none" stroke="#569ad8" stroke-width="2" d="M1053.5,-684C1053.5,-684 938.5,-684 938.5,-684 932.5,-684 926.5,-678 926.5,-672 926.5,-672 926.5,-660 926.5,-660 926.5,-654 932.5,-648 938.5,-648 938.5,-648 1053.5,-648 1053.5,-648 1059.5,-648 1065.5,-654 1065.5,-660 1065.5,-660 1065.5,-672 1065.5,-672 1065.5,-678 1059.5,-684 1053.5,-684"/>
<text text-anchor="middle" x="996" y="-662.88" font-family="sans" font-size="10.00">build_contaminant_index</text>
</g>
<!-- 7&#45;&gt;6 -->
<g id="edge22" class="edge">
<title>7&#45;&gt;6</title>
<path fill="none" stroke="grey" stroke-width="2" d="M996,-647.34C996,-640.75 996,-633.08 996,-625.67"/>
<polygon fill="grey" stroke="grey" stroke-width="2" points="999.5,-625.93 996,-615.93 992.5,-625.93 999.5,-625.93"/>
</g>
<!-- 8 -->
<g id="node9" class="node">
<title>8</title>
<path fill="none" stroke="#56d863" stroke-width="2" d="M1051.62,-756C1051.62,-756 940.38,-756 940.38,-756 934.38,-756 928.38,-750 928.38,-744 928.38,-744 928.38,-732 928.38,-732 928.38,-726 934.38,-720 940.38,-720 940.38,-720 1051.62,-720 1051.62,-720 1057.62,-720 1063.62,-726 1063.62,-732 1063.62,-732 1063.62,-744 1063.62,-744 1063.62,-750 1057.62,-756 1051.62,-756"/>
<text text-anchor="middle" x="996" y="-734.88" font-family="sans" font-size="10.00">download_contaminants</text>
</g>
<!-- 8&#45;&gt;7 -->
<g id="edge24" class="edge">
<title>8&#45;&gt;7</title>
<path fill="none" stroke="grey" stroke-width="2" d="M996,-719.34C996,-712.75 996,-705.08 996,-697.67"/>
<polygon fill="grey" stroke="grey" stroke-width="2" points="999.5,-697.93 996,-687.93 992.5,-697.93 999.5,-697.93"/>
</g>
<!-- 9&#45;&gt;0 -->
<g id="edge18" class="edge">
<title>9&#45;&gt;0</title>
<path fill="none" stroke="grey" stroke-width="2" d="M1014.61,-143.19C1004.93,-122.31 985.85,-88.47 958,-72 891.62,-32.73 657.88,-22.43 562.74,-19.83"/>
<polygon fill="grey" stroke="grey" stroke-width="2" points="562.86,-16.34 552.77,-19.58 562.68,-23.33 562.86,-16.34"/>
</g>
<!-- 10 -->
<g id="node11" class="node">
<title>10</title>
<path fill="none" stroke="#d6d856" stroke-width="2" d="M1140.38,-108C1140.38,-108 1021.62,-108 1021.62,-108 1015.62,-108 1009.62,-102 1009.62,-96 1009.62,-96 1009.62,-84 1009.62,-84 1009.62,-78 1015.62,-72 1021.62,-72 1021.62,-72 1140.38,-72 1140.38,-72 1146.38,-72 1152.38,-78 1152.38,-84 1152.38,-84 1152.38,-96 1152.38,-96 1152.38,-102 1146.38,-108 1140.38,-108"/>
<text text-anchor="middle" x="1081" y="-86.88" font-family="sans" font-size="10.00">merge_flagstats_depleted</text>
</g>
<!-- 9&#45;&gt;10 -->
<g id="edge26" class="edge">
<title>9&#45;&gt;10</title>
<path fill="none" stroke="grey" stroke-width="2" d="M1036.89,-143.34C1043.2,-135.85 1050.7,-126.95 1057.71,-118.63"/>
<polygon fill="grey" stroke="grey" stroke-width="2" points="1060.19,-121.12 1063.96,-111.22 1054.84,-116.61 1060.19,-121.12"/>
</g>
<!-- 10&#45;&gt;0 -->
<g id="edge7" class="edge">
<title>10&#45;&gt;0</title>
<path fill="none" stroke="grey" stroke-width="2" d="M1008.74,-74.11C1004.43,-73.36 1000.16,-72.65 996,-72 836.5,-47.18 645.07,-29.43 562.82,-22.37"/>
<polygon fill="grey" stroke="grey" stroke-width="2" points="563.17,-18.89 552.91,-21.53 562.58,-25.86 563.17,-18.89"/>
</g>
<!-- 11&#45;&gt;0 -->
<g id="edge9" class="edge">
<title>11&#45;&gt;0</title>
<path fill="none" stroke="grey" stroke-width="2" d="M832.54,-503.19C845.75,-476.84 868,-425.55 868,-379 868,-379 868,-379 868,-161 868,-108.7 836.23,-98.26 791,-72 718.18,-29.72 617.54,-20.56 562.31,-18.94"/>
<polygon fill="grey" stroke="grey" stroke-width="2" points="562.71,-15.45 552.64,-18.74 562.56,-22.45 562.71,-15.45"/>
</g>
<!-- 13 -->
<g id="node14" class="node">
<title>13</title>
<path fill="none" stroke="#56d892" stroke-width="2" d="M827.75,-180C827.75,-180 744.25,-180 744.25,-180 738.25,-180 732.25,-174 732.25,-168 732.25,-168 732.25,-156 732.25,-156 732.25,-150 738.25,-144 744.25,-144 744.25,-144 827.75,-144 827.75,-144 833.75,-144 839.75,-150 839.75,-156 839.75,-156 839.75,-168 839.75,-168 839.75,-174 833.75,-180 827.75,-180"/>
<text text-anchor="middle" x="786" y="-158.88" font-family="sans" font-size="10.00">flagstat_alignment</text>
</g>
<!-- 11&#45;&gt;13 -->
<g id="edge30" class="edge">
<title>11&#45;&gt;13</title>
<path fill="none" stroke="grey" stroke-width="2" d="M820.1,-503.12C816,-476.26 809,-423.84 809,-379 809,-379 809,-379 809,-305 809,-265.98 800.43,-221.69 793.75,-193.1"/>
<polygon fill="grey" stroke="grey" stroke-width="2" points="797.24,-192.62 791.48,-183.72 790.44,-194.27 797.24,-192.62"/>
</g>
<!-- 11&#45;&gt;16 -->
<g id="edge37" class="edge">
<title>11&#45;&gt;16</title>
<path fill="none" stroke="grey" stroke-width="2" d="M783.04,-516.83C668.47,-504.88 338.72,-470.48 207.16,-456.75"/>
<polygon fill="grey" stroke="grey" stroke-width="2" points="207.64,-453.29 197.33,-455.73 206.92,-460.25 207.64,-453.29"/>
</g>
<!-- 12&#45;&gt;11 -->
<g id="edge27" class="edge">
<title>12&#45;&gt;11</title>
<path fill="none" stroke="grey" stroke-width="2" d="M723.16,-575.15C739.7,-566.52 759.78,-556.02 777.59,-546.72"/>
<polygon fill="grey" stroke="grey" stroke-width="2" points="778.98,-549.95 786.22,-542.21 775.73,-543.74 778.98,-549.95"/>
</g>
<!-- 13&#45;&gt;0 -->
<g id="edge14" class="edge">
<title>13&#45;&gt;0</title>
<path fill="none" stroke="grey" stroke-width="2" d="M787.92,-143.02C789,-122.94 787.36,-90.78 769,-72 740.72,-43.07 624.95,-28.32 562.46,-22.33"/>
<polygon fill="grey" stroke="grey" stroke-width="2" points="562.91,-18.85 552.63,-21.42 562.27,-25.82 562.91,-18.85"/>
</g>
<!-- 14 -->
<g id="node15" class="node">
<title>14</title>
<path fill="none" stroke="#d85656" stroke-width="2" d="M748.38,-108C748.38,-108 677.62,-108 677.62,-108 671.62,-108 665.62,-102 665.62,-96 665.62,-96 665.62,-84 665.62,-84 665.62,-78 671.62,-72 677.62,-72 677.62,-72 748.38,-72 748.38,-72 754.38,-72 760.38,-78 760.38,-84 760.38,-84 760.38,-96 760.38,-96 760.38,-102 754.38,-108 748.38,-108"/>
<text text-anchor="middle" x="713" y="-86.88" font-family="sans" font-size="10.00">merge_flagstats</text>
</g>
<!-- 13&#45;&gt;14 -->
<g id="edge31" class="edge">
<title>13&#45;&gt;14</title>
<path fill="none" stroke="grey" stroke-width="2" d="M767.58,-143.34C759.51,-135.6 749.87,-126.36 740.96,-117.81"/>
<polygon fill="grey" stroke="grey" stroke-width="2" points="743.49,-115.39 733.85,-111 738.65,-120.44 743.49,-115.39"/>
</g>
<!-- 13&#45;&gt;15 -->
<g id="edge36" class="edge">
<title>13&#45;&gt;15</title>
<path fill="none" stroke="grey" stroke-width="2" d="M733.99,-143.06C699.35,-131.12 654.53,-115.67 622.75,-104.71"/>
<polygon fill="grey" stroke="grey" stroke-width="2" points="624.29,-101.53 613.69,-101.58 622.01,-108.15 624.29,-101.53"/>
</g>
<!-- 14&#45;&gt;0 -->
<g id="edge1" class="edge">
<title>14&#45;&gt;0</title>
<path fill="none" stroke="grey" stroke-width="2" d="M664.8,-71.34C632.99,-59.68 591.81,-44.58 561.85,-33.6"/>
<polygon fill="grey" stroke="grey" stroke-width="2" points="563.19,-30.37 552.6,-30.21 560.78,-36.94 563.19,-30.37"/>
</g>
<!-- 15&#45;&gt;0 -->
<g id="edge10" class="edge">
<title>15&#45;&gt;0</title>
<path fill="none" stroke="grey" stroke-width="2" d="M567.61,-71.34C561.08,-63.85 553.33,-54.95 546.08,-46.63"/>
<polygon fill="grey" stroke="grey" stroke-width="2" points="548.8,-44.42 539.59,-39.18 543.52,-49.02 548.8,-44.42"/>
</g>
<!-- 16&#45;&gt;0 -->
<g id="edge5" class="edge">
<title>16&#45;&gt;0</title>
<path fill="none" stroke="grey" stroke-width="2" d="M135.13,-431.35C112.74,-405.98 76,-356.77 76,-307 76,-307 76,-307 76,-161 76,-116.27 86.3,-97.57 123,-72 180.33,-32.06 391.58,-22.18 481.28,-19.77"/>
<polygon fill="grey" stroke="grey" stroke-width="2" points="481.16,-23.27 491.07,-19.52 480.99,-16.27 481.16,-23.27"/>
</g>
<!-- 16&#45;&gt;15 -->
<g id="edge34" class="edge">
<title>16&#45;&gt;15</title>
<path fill="none" stroke="grey" stroke-width="2" d="M194.6,-444.22C303.59,-430.82 584,-388.41 584,-307 584,-307 584,-307 584,-233 584,-194.65 583.63,-150.48 583.34,-121.72"/>
<polygon fill="grey" stroke="grey" stroke-width="2" points="586.84,-121.92 583.24,-111.96 579.84,-122 586.84,-121.92"/>
</g>
<!-- 17 -->
<g id="node18" class="node">
<title>17</title>
<path fill="none" stroke="#78d856" stroke-width="2" d="M205,-396C205,-396 175,-396 175,-396 169,-396 163,-390 163,-384 163,-384 163,-372 163,-372 163,-366 169,-360 175,-360 175,-360 205,-360 205,-360 211,-360 217,-366 217,-372 217,-372 217,-384 217,-384 217,-390 211,-396 205,-396"/>
<text text-anchor="middle" x="190" y="-374.88" font-family="sans" font-size="10.00">deseq2</text>
</g>
<!-- 16&#45;&gt;17 -->
<g id="edge39" class="edge">
<title>16&#45;&gt;17</title>
<path fill="none" stroke="grey" stroke-width="2" d="M161.59,-431.34C165.39,-424.34 169.85,-416.12 174.11,-408.28"/>
<polygon fill="grey" stroke="grey" stroke-width="2" points="177.14,-410.02 178.84,-399.56 170.99,-406.68 177.14,-410.02"/>
</g>
<!-- 18 -->
<g id="node19" class="node">
<title>18</title>
<path fill="none" stroke="#566bd8" stroke-width="2" d="M205.62,-252C205.62,-252 154.38,-252 154.38,-252 148.38,-252 142.38,-246 142.38,-240 142.38,-240 142.38,-228 142.38,-228 142.38,-222 148.38,-216 154.38,-216 154.38,-216 205.62,-216 205.62,-216 211.62,-216 217.62,-222 217.62,-228 217.62,-228 217.62,-240 217.62,-240 217.62,-246 211.62,-252 205.62,-252"/>
<text text-anchor="middle" x="180" y="-230.88" font-family="sans" font-size="10.00">plot_deseq2</text>
</g>
<!-- 16&#45;&gt;18 -->
<g id="edge40" class="edge">
<title>16&#45;&gt;18</title>
<path fill="none" stroke="grey" stroke-width="2" d="M151.45,-431.2C151.11,-413.19 151.19,-384.57 154,-360 157.75,-327.15 165.96,-290.13 172.16,-264.96"/>
<polygon fill="grey" stroke="grey" stroke-width="2" points="175.48,-266.12 174.53,-255.57 168.69,-264.41 175.48,-266.12"/>
</g>
<!-- 17&#45;&gt;0 -->
<g id="edge11" class="edge">
<title>17&#45;&gt;0</title>
<path fill="none" stroke="grey" stroke-width="2" d="M179.28,-359.12C149.37,-306.71 72.24,-152.15 151,-72 196.29,-25.91 394.64,-19.44 481.27,-18.85"/>
<polygon fill="grey" stroke="grey" stroke-width="2" points="481.16,-22.35 491.15,-18.81 481.13,-15.35 481.16,-22.35"/>
</g>
<!-- 17&#45;&gt;18 -->
<g id="edge41" class="edge">
<title>17&#45;&gt;18</title>
<path fill="none" stroke="grey" stroke-width="2" d="M188.73,-359.02C187.08,-335.54 184.16,-294.11 182.16,-265.64"/>
<polygon fill="grey" stroke="grey" stroke-width="2" points="185.66,-265.59 181.47,-255.86 178.68,-266.08 185.66,-265.59"/>
</g>
<!-- 19 -->
<g id="node20" class="node">
<title>19</title>
<path fill="none" stroke="#d89c56" stroke-width="2" d="M384.25,-324C384.25,-324 285.75,-324 285.75,-324 279.75,-324 273.75,-318 273.75,-312 273.75,-312 273.75,-300 273.75,-300 273.75,-294 279.75,-288 285.75,-288 285.75,-288 384.25,-288 384.25,-288 390.25,-288 396.25,-294 396.25,-300 396.25,-300 396.25,-312 396.25,-312 396.25,-318 390.25,-324 384.25,-324"/>
<text text-anchor="middle" x="335" y="-302.88" font-family="sans" font-size="10.00">extract_mirna_names</text>
</g>
<!-- 17&#45;&gt;19 -->
<g id="edge42" class="edge">
<title>17&#45;&gt;19</title>
<path fill="none" stroke="grey" stroke-width="2" d="M217.96,-363.5C237.3,-354.17 263.55,-341.49 286.28,-330.52"/>
<polygon fill="grey" stroke="grey" stroke-width="2" points="287.59,-333.77 295.07,-326.27 284.55,-327.47 287.59,-333.77"/>
</g>
<!-- 22 -->
<g id="node23" class="node">
<title>22</title>
<path fill="none" stroke="#61d856" stroke-width="2" d="M299.75,-108C299.75,-108 192.25,-108 192.25,-108 186.25,-108 180.25,-102 180.25,-96 180.25,-96 180.25,-84 180.25,-84 180.25,-78 186.25,-72 192.25,-72 192.25,-72 299.75,-72 299.75,-72 305.75,-72 311.75,-78 311.75,-84 311.75,-84 311.75,-96 311.75,-96 311.75,-102 305.75,-108 299.75,-108"/>
<text text-anchor="middle" x="246" y="-86.88" font-family="sans" font-size="10.00">deseq_summary_report</text>
</g>
<!-- 17&#45;&gt;22 -->
<g id="edge46" class="edge">
<title>17&#45;&gt;22</title>
<path fill="none" stroke="grey" stroke-width="2" d="M196.37,-359.03C204.67,-334.96 219.03,-290.8 227,-252 236.27,-206.89 241.45,-153.67 243.98,-121.14"/>
<polygon fill="grey" stroke="grey" stroke-width="2" points="247.44,-121.8 244.69,-111.57 240.46,-121.28 247.44,-121.8"/>
</g>
<!-- 18&#45;&gt;0 -->
<g id="edge19" class="edge">
<title>18&#45;&gt;0</title>
<path fill="none" stroke="grey" stroke-width="2" d="M171.92,-215.23C158.42,-182.57 136.04,-112.64 171,-72 210.6,-25.98 397.16,-19.4 481.01,-18.81"/>
<polygon fill="grey" stroke="grey" stroke-width="2" points="481,-22.31 490.99,-18.78 480.98,-15.32 481,-22.31"/>
</g>
<!-- 18&#45;&gt;22 -->
<g id="edge47" class="edge">
<title>18&#45;&gt;22</title>
<path fill="none" stroke="grey" stroke-width="2" d="M188.36,-215.02C199.42,-191.22 219.05,-148.97 232.3,-120.48"/>
<polygon fill="grey" stroke="grey" stroke-width="2" points="235.39,-122.13 236.43,-111.58 229.04,-119.18 235.39,-122.13"/>
</g>
<!-- 19&#45;&gt;0 -->
<g id="edge4" class="edge">
<title>19&#45;&gt;0</title>
<path fill="none" stroke="grey" stroke-width="2" d="M324.39,-287.47C307.25,-256.67 277.79,-191.6 303,-144 339.08,-75.88 429.13,-42.33 481.84,-28.02"/>
<polygon fill="grey" stroke="grey" stroke-width="2" points="482.64,-31.43 491.45,-25.55 480.89,-24.65 482.64,-31.43"/>
</g>
<!-- 20 -->
<g id="node21" class="node">
<title>20</title>
<path fill="none" stroke="#56d8a2" stroke-width="2" d="M469,-252C469,-252 375,-252 375,-252 369,-252 363,-246 363,-240 363,-240 363,-228 363,-228 363,-222 369,-216 375,-216 375,-216 469,-216 469,-216 475,-216 481,-222 481,-228 481,-228 481,-240 481,-240 481,-246 475,-252 469,-252"/>
<text text-anchor="middle" x="422" y="-230.88" font-family="sans" font-size="10.00">cache_mirna_targets</text>
</g>
<!-- 19&#45;&gt;20 -->
<g id="edge43" class="edge">
<title>19&#45;&gt;20</title>
<path fill="none" stroke="grey" stroke-width="2" d="M356.95,-287.34C366.87,-279.36 378.79,-269.77 389.7,-260.99"/>
<polygon fill="grey" stroke="grey" stroke-width="2" points="391.8,-263.8 397.39,-254.8 387.41,-258.34 391.8,-263.8"/>
</g>
<!-- 21 -->
<g id="node22" class="node">
<title>21</title>
<path fill="none" stroke="#56c9d8" stroke-width="2" d="M419.75,-180C419.75,-180 324.25,-180 324.25,-180 318.25,-180 312.25,-174 312.25,-168 312.25,-168 312.25,-156 312.25,-156 312.25,-150 318.25,-144 324.25,-144 324.25,-144 419.75,-144 419.75,-144 425.75,-144 431.75,-150 431.75,-156 431.75,-156 431.75,-168 431.75,-168 431.75,-174 425.75,-180 419.75,-180"/>
<text text-anchor="middle" x="372" y="-158.88" font-family="sans" font-size="10.00">enrich_mirna_targets</text>
</g>
<!-- 19&#45;&gt;21 -->
<g id="edge45" class="edge">
<title>19&#45;&gt;21</title>
<path fill="none" stroke="grey" stroke-width="2" d="M338.18,-287.12C341.54,-269.04 347.28,-240.37 354,-216 356.06,-208.53 358.58,-200.57 361.08,-193.15"/>
<polygon fill="grey" stroke="grey" stroke-width="2" points="364.34,-194.44 364.31,-183.85 357.72,-192.15 364.34,-194.44"/>
</g>
<!-- 20&#45;&gt;0 -->
<g id="edge15" class="edge">
<title>20&#45;&gt;0</title>
<path fill="none" stroke="grey" stroke-width="2" d="M430.35,-215.12C447.56,-178.3 487.1,-93.69 508.18,-48.58"/>
<polygon fill="grey" stroke="grey" stroke-width="2" points="511.26,-50.26 512.32,-39.72 504.91,-47.3 511.26,-50.26"/>
</g>
<!-- 20&#45;&gt;21 -->
<g id="edge44" class="edge">
<title>20&#45;&gt;21</title>
<path fill="none" stroke="grey" stroke-width="2" d="M409.38,-215.34C404.21,-208.1 398.09,-199.53 392.32,-191.45"/>
<polygon fill="grey" stroke="grey" stroke-width="2" points="395.21,-189.47 386.55,-183.37 389.51,-193.54 395.21,-189.47"/>
</g>
<!-- 21&#45;&gt;0 -->
<g id="edge17" class="edge">
<title>21&#45;&gt;0</title>
<path fill="none" stroke="grey" stroke-width="2" d="M384.65,-143.07C398.47,-124.18 421.88,-94.16 446,-72 457.45,-61.48 471.09,-51.34 483.64,-42.81"/>
<polygon fill="grey" stroke="grey" stroke-width="2" points="485.37,-45.86 491.77,-37.42 481.5,-40.02 485.37,-45.86"/>
</g>
<!-- 21&#45;&gt;22 -->
<g id="edge48" class="edge">
<title>21&#45;&gt;22</title>
<path fill="none" stroke="grey" stroke-width="2" d="M339.88,-143.15C324.48,-134.6 305.8,-124.22 289.18,-114.99"/>
<polygon fill="grey" stroke="grey" stroke-width="2" points="291.15,-112.08 280.71,-110.28 287.75,-118.2 291.15,-112.08"/>
</g>
<!-- 22&#45;&gt;0 -->
<g id="edge12" class="edge">
<title>22&#45;&gt;0</title>
<path fill="none" stroke="grey" stroke-width="2" d="M312.46,-72.14C365.19,-58.77 437.18,-40.51 481.58,-29.25"/>
<polygon fill="grey" stroke="grey" stroke-width="2" points="482.38,-32.66 491.22,-26.81 480.66,-25.87 482.38,-32.66"/>
</g>
</g>
</svg>
